<?xml version="1.0" encoding="UTF-8" standalone="no"?>
<!DOCTYPE svg PUBLIC "-//W3C//DTD SVG 1.1//EN"
 "http://www.w3.org/Graphics/SVG/1.1/DTD/svg11.dtd">
<!-- Generated by graphviz version 9.0.0 (20230911.1827)
 -->
<!-- Title: iop/system Pages: 1 -->
<svg width="1574pt" height="197pt"
 viewBox="0.00 0.00 1573.75 197.00" xmlns="http://www.w3.org/2000/svg" xmlns:xlink="http://www.w3.org/1999/xlink">
<g id="graph0" class="graph" transform="scale(1 1) rotate(0) translate(4 193)">
<title>iop/system</title>
<g id="clust1" class="cluster">
<title>clusterdir_0981ace215aa2029f526b70c145b9fbe</title>
<g id="a_clust1"><a xlink:href="dir_0981ace215aa2029f526b70c145b9fbe.html" target="_top" xlink:title="iop">
<polygon fill="#deebf9" stroke="#404040" stroke-dasharray="5,2" points="8,-8 8,-181 1504,-181 1504,-8 8,-8"/>
<text text-anchor="middle" x="756" y="-167.5" font-family="Helvetica,sans-Serif" font-size="10.00">iop</text>
</a>
</g>
</g>
<g id="clust2" class="cluster">
<title>clusterdir_40ac35421bc63b72c26b6c69b1517fd6</title>
<g id="a_clust2"><a xlink:href="dir_40ac35421bc63b72c26b6c69b1517fd6.html" target="_top">
<polygon fill="#deebf9" stroke="#404040" stroke-width="2" points="16,-63.25 16,-153.75 1496,-153.75 1496,-63.25 16,-63.25"/>
</a>
</g>
</g>
<!-- dir_9be0baa3d4a3e9f480a9ee70594037fa -->
<g id="node1" class="node">
<title>dir_9be0baa3d4a3e9f480a9ee70594037fa</title>
<g id="a_node1"><a xlink:href="dir_9be0baa3d4a3e9f480a9ee70594037fa.html" target="_top" xlink:title="kernel">
<polygon fill="#60a2e3" stroke="red" points="612.12,-35.25 569.88,-35.25 569.88,-16 612.12,-16 612.12,-35.25"/>
<text text-anchor="middle" x="591" y="-21.75" font-family="Helvetica,sans-Serif" font-size="10.00">kernel</text>
</a>
</g>
</g>
<!-- dir_40ac35421bc63b72c26b6c69b1517fd6 -->
<g id="node2" class="node">
<title>dir_40ac35421bc63b72c26b6c69b1517fd6</title>
<text text-anchor="middle" x="1464" y="-132.25" font-family="Helvetica,sans-Serif" font-size="10.00">system</text>
</g>
<!-- dir_249e27ed47f6a2eab7da7b1ddc4f92fd -->
<g id="node3" class="node">
<title>dir_249e27ed47f6a2eab7da7b1ddc4f92fd</title>
<g id="a_node3"><a xlink:href="dir_249e27ed47f6a2eab7da7b1ddc4f92fd.html" target="_top" xlink:title="alloc">
<polygon fill="#60a2e3" stroke="#404040" points="543.12,-145.75 506.88,-145.75 506.88,-126.5 543.12,-126.5 543.12,-145.75"/>
<text text-anchor="middle" x="525" y="-132.25" font-family="Helvetica,sans-Serif" font-size="10.00">alloc</text>
</a>
</g>
</g>
<!-- dir_249e27ed47f6a2eab7da7b1ddc4f92fd&#45;&gt;dir_9be0baa3d4a3e9f480a9ee70594037fa -->
<g id="edge1" class="edge">
<title>dir_249e27ed47f6a2eab7da7b1ddc4f92fd&#45;&gt;dir_9be0baa3d4a3e9f480a9ee70594037fa</title>
<g id="a_edge1"><a xlink:href="dir_000005_000171.html" target="_top">
<path fill="none" stroke="#63b8ff" d="M530.4,-126.25C541.13,-108.6 565.34,-68.8 579.7,-45.2"/>
<polygon fill="#63b8ff" stroke="#63b8ff" points="582.53,-47.28 584.74,-36.92 576.55,-43.64 582.53,-47.28"/>
</a>
</g>
<g id="a_edge1&#45;headlabel"><a xlink:href="dir_000005_000171.html" target="_top" xlink:title="7">
<text text-anchor="middle" x="583.88" y="-46.66" font-family="Helvetica,sans-Serif" font-size="10.00" fill="#63b8ff">7</text>
</a>
</g>
</g>
<!-- dir_d7026c86e7f8fc62fc6c0ebacfebf381 -->
<g id="node4" class="node">
<title>dir_d7026c86e7f8fc62fc6c0ebacfebf381</title>
<g id="a_node4"><a xlink:href="dir_d7026c86e7f8fc62fc6c0ebacfebf381.html" target="_top" xlink:title="dmacman">
<polygon fill="#60a2e3" stroke="#404040" points="620.38,-145.75 561.62,-145.75 561.62,-126.5 620.38,-126.5 620.38,-145.75"/>
<text text-anchor="middle" x="591" y="-132.25" font-family="Helvetica,sans-Serif" font-size="10.00">dmacman</text>
</a>
</g>
</g>
<!-- dir_d7026c86e7f8fc62fc6c0ebacfebf381&#45;&gt;dir_9be0baa3d4a3e9f480a9ee70594037fa -->
<g id="edge2" class="edge">
<title>dir_d7026c86e7f8fc62fc6c0ebacfebf381&#45;&gt;dir_9be0baa3d4a3e9f480a9ee70594037fa</title>
<g id="a_edge2"><a xlink:href="dir_000030_000171.html" target="_top">
<path fill="none" stroke="#63b8ff" d="M591,-126.25C591,-109 591,-70.58 591,-46.81"/>
<polygon fill="#63b8ff" stroke="#63b8ff" points="594.5,-47.14 591,-37.14 587.5,-47.14 594.5,-47.14"/>
</a>
</g>
<g id="a_edge2&#45;headlabel"><a xlink:href="dir_000030_000171.html" target="_top" xlink:title="5">
<text text-anchor="middle" x="597.34" y="-45.35" font-family="Helvetica,sans-Serif" font-size="10.00" fill="#63b8ff">5</text>
</a>
</g>
</g>
<!-- dir_d26cb44661e10025c70afdeb6a3fa91f -->
<g id="node5" class="node">
<title>dir_d26cb44661e10025c70afdeb6a3fa91f</title>
<g id="a_node5"><a xlink:href="dir_d26cb44661e10025c70afdeb6a3fa91f.html" target="_top" xlink:title="eesync">
<polygon fill="#60a2e3" stroke="#404040" points="685.38,-145.75 638.62,-145.75 638.62,-126.5 685.38,-126.5 685.38,-145.75"/>
<text text-anchor="middle" x="662" y="-132.25" font-family="Helvetica,sans-Serif" font-size="10.00">eesync</text>
</a>
</g>
</g>
<!-- dir_d26cb44661e10025c70afdeb6a3fa91f&#45;&gt;dir_9be0baa3d4a3e9f480a9ee70594037fa -->
<g id="edge3" class="edge">
<title>dir_d26cb44661e10025c70afdeb6a3fa91f&#45;&gt;dir_9be0baa3d4a3e9f480a9ee70594037fa</title>
<g id="a_edge3"><a xlink:href="dir_000041_000171.html" target="_top">
<path fill="none" stroke="#63b8ff" d="M656.19,-126.25C644.64,-108.6 618.6,-68.8 603.15,-45.2"/>
<polygon fill="#63b8ff" stroke="#63b8ff" points="606.12,-43.34 597.72,-36.89 600.27,-47.18 606.12,-43.34"/>
</a>
</g>
<g id="a_edge3&#45;headlabel"><a xlink:href="dir_000041_000171.html" target="_top" xlink:title="12">
<text text-anchor="middle" x="609.64" y="-39.66" font-family="Helvetica,sans-Serif" font-size="10.00" fill="#63b8ff">12</text>
</a>
</g>
</g>
<!-- dir_d204d0cf134f4cdf6ccf23f48ed9ae60 -->
<g id="node6" class="node">
<title>dir_d204d0cf134f4cdf6ccf23f48ed9ae60</title>
<g id="a_node6"><a xlink:href="dir_d204d0cf134f4cdf6ccf23f48ed9ae60.html" target="_top" xlink:title="ioman">
<polygon fill="#60a2e3" stroke="#404040" points="1016.12,-145.75 973.88,-145.75 973.88,-126.5 1016.12,-126.5 1016.12,-145.75"/>
<text text-anchor="middle" x="995" y="-132.25" font-family="Helvetica,sans-Serif" font-size="10.00">ioman</text>
</a>
</g>
</g>
<!-- dir_d204d0cf134f4cdf6ccf23f48ed9ae60&#45;&gt;dir_9be0baa3d4a3e9f480a9ee70594037fa -->
<g id="edge4" class="edge">
<title>dir_d204d0cf134f4cdf6ccf23f48ed9ae60&#45;&gt;dir_9be0baa3d4a3e9f480a9ee70594037fa</title>
<g id="a_edge4"><a xlink:href="dir_000162_000171.html" target="_top">
<path fill="none" stroke="#63b8ff" d="M973.41,-127.42C933.44,-113.35 845.09,-83.12 769,-63.25 718.81,-50.14 659.67,-38.77 623.77,-32.3"/>
<polygon fill="#63b8ff" stroke="#63b8ff" points="624.49,-28.87 614.03,-30.57 623.26,-35.77 624.49,-28.87"/>
</a>
</g>
<g id="a_edge4&#45;headlabel"><a xlink:href="dir_000162_000171.html" target="_top" xlink:title="8">
<text text-anchor="middle" x="627.03" y="-22.57" font-family="Helvetica,sans-Serif" font-size="10.00" fill="#63b8ff">8</text>
</a>
</g>
</g>
<!-- dir_bdd9a5d540de89e9fe90efdfc6973a4f -->
<g id="node28" class="node">
<title>dir_bdd9a5d540de89e9fe90efdfc6973a4f</title>
<g id="a_node28"><a xlink:href="dir_bdd9a5d540de89e9fe90efdfc6973a4f.html" target="_top" xlink:title="common">
<polygon fill="#deebf9" stroke="red" points="1565.75,-90.5 1512.25,-90.5 1512.25,-71.25 1565.75,-71.25 1565.75,-90.5"/>
<text text-anchor="middle" x="1539" y="-77" font-family="Helvetica,sans-Serif" font-size="10.00">common</text>
</a>
</g>
</g>
<!-- dir_d204d0cf134f4cdf6ccf23f48ed9ae60&#45;&gt;dir_bdd9a5d540de89e9fe90efdfc6973a4f -->
<g id="edge5" class="edge">
<title>dir_d204d0cf134f4cdf6ccf23f48ed9ae60&#45;&gt;dir_bdd9a5d540de89e9fe90efdfc6973a4f</title>
<g id="a_edge5"><a xlink:href="dir_000162_000022.html" target="_top">
<path fill="none" stroke="#63b8ff" d="M1016.56,-128.55C1019.7,-127.76 1022.92,-127.04 1026,-126.5 1234.1,-90.01 1291,-121.39 1500,-90.5 1500.24,-90.46 1500.48,-90.43 1500.72,-90.39"/>
<polygon fill="#63b8ff" stroke="#63b8ff" points="1501.1,-93.88 1510.33,-88.67 1499.87,-86.99 1501.1,-93.88"/>
</a>
</g>
<g id="a_edge5&#45;headlabel"><a xlink:href="dir_000162_000022.html" target="_top" xlink:title="1">
<text text-anchor="middle" x="1499.55" y="-93.17" font-family="Helvetica,sans-Serif" font-size="10.00" fill="#63b8ff">1</text>
</a>
</g>
</g>
<!-- dir_f82a163f83eb0dcdf294ef3743365a67 -->
<g id="node7" class="node">
<title>dir_f82a163f83eb0dcdf294ef3743365a67</title>
<g id="a_node7"><a xlink:href="dir_f82a163f83eb0dcdf294ef3743365a67.html" target="_top" xlink:title="iomanx">
<polygon fill="#60a2e3" stroke="#404040" points="1081.38,-145.75 1034.62,-145.75 1034.62,-126.5 1081.38,-126.5 1081.38,-145.75"/>
<text text-anchor="middle" x="1058" y="-132.25" font-family="Helvetica,sans-Serif" font-size="10.00">iomanx</text>
</a>
</g>
</g>
<!-- dir_f82a163f83eb0dcdf294ef3743365a67&#45;&gt;dir_9be0baa3d4a3e9f480a9ee70594037fa -->
<g id="edge6" class="edge">
<title>dir_f82a163f83eb0dcdf294ef3743365a67&#45;&gt;dir_9be0baa3d4a3e9f480a9ee70594037fa</title>
<g id="a_edge6"><a xlink:href="dir_000163_000171.html" target="_top">
<path fill="none" stroke="#63b8ff" d="M1034.33,-126.95C991.45,-112.4 897.86,-81.78 817,-63.25 748.86,-47.64 667.68,-36.19 623.53,-30.55"/>
<polygon fill="#63b8ff" stroke="#63b8ff" points="624.22,-27.11 613.87,-29.34 623.35,-34.06 624.22,-27.11"/>
</a>
</g>
<g id="a_edge6&#45;headlabel"><a xlink:href="dir_000163_000171.html" target="_top" xlink:title="7">
<text text-anchor="middle" x="626.64" y="-20.68" font-family="Helvetica,sans-Serif" font-size="10.00" fill="#63b8ff">7</text>
</a>
</g>
</g>
<!-- dir_f82a163f83eb0dcdf294ef3743365a67&#45;&gt;dir_bdd9a5d540de89e9fe90efdfc6973a4f -->
<g id="edge7" class="edge">
<title>dir_f82a163f83eb0dcdf294ef3743365a67&#45;&gt;dir_bdd9a5d540de89e9fe90efdfc6973a4f</title>
<g id="a_edge7"><a xlink:href="dir_000163_000022.html" target="_top">
<path fill="none" stroke="#63b8ff" d="M1081.66,-128.25C1084.46,-127.59 1087.28,-126.98 1090,-126.5 1270.12,-94.57 1319.2,-118.31 1500,-90.5 1500.24,-90.46 1500.48,-90.43 1500.72,-90.39"/>
<polygon fill="#63b8ff" stroke="#63b8ff" points="1501.11,-93.87 1510.32,-88.63 1499.85,-86.99 1501.11,-93.87"/>
</a>
</g>
<g id="a_edge7&#45;headlabel"><a xlink:href="dir_000163_000022.html" target="_top" xlink:title="1">
<text text-anchor="middle" x="1499.58" y="-93.17" font-family="Helvetica,sans-Serif" font-size="10.00" fill="#63b8ff">1</text>
</a>
</g>
</g>
<!-- dir_024ed9b5cab300e9b0cec9fa63c26df3 -->
<g id="node8" class="node">
<title>dir_024ed9b5cab300e9b0cec9fa63c26df3</title>
<g id="a_node8"><a xlink:href="dir_024ed9b5cab300e9b0cec9fa63c26df3.html" target="_top" xlink:title="iopmgr">
<polygon fill="#60a2e3" stroke="#404040" points="748.62,-145.75 703.38,-145.75 703.38,-126.5 748.62,-126.5 748.62,-145.75"/>
<text text-anchor="middle" x="726" y="-132.25" font-family="Helvetica,sans-Serif" font-size="10.00">iopmgr</text>
</a>
</g>
</g>
<!-- dir_024ed9b5cab300e9b0cec9fa63c26df3&#45;&gt;dir_9be0baa3d4a3e9f480a9ee70594037fa -->
<g id="edge8" class="edge">
<title>dir_024ed9b5cab300e9b0cec9fa63c26df3&#45;&gt;dir_9be0baa3d4a3e9f480a9ee70594037fa</title>
<g id="a_edge8"><a xlink:href="dir_000167_000171.html" target="_top">
<path fill="none" stroke="#63b8ff" d="M714.95,-126.25C692.21,-107.97 639.87,-65.9 611.01,-42.71"/>
<polygon fill="#63b8ff" stroke="#63b8ff" points="613.37,-40.11 603.38,-36.57 608.98,-45.57 613.37,-40.11"/>
</a>
</g>
<g id="a_edge8&#45;headlabel"><a xlink:href="dir_000167_000171.html" target="_top" xlink:title="31">
<text text-anchor="middle" x="616.77" y="-35.33" font-family="Helvetica,sans-Serif" font-size="10.00" fill="#63b8ff">31</text>
</a>
</g>
</g>
<!-- dir_c70e074c247f0fc7ba2b5b627ea24568 -->
<g id="node9" class="node">
<title>dir_c70e074c247f0fc7ba2b5b627ea24568</title>
<g id="a_node9"><a xlink:href="dir_c70e074c247f0fc7ba2b5b627ea24568.html" target="_top" xlink:title="loadfile">
<polygon fill="#60a2e3" stroke="#404040" points="1145,-145.75 1099,-145.75 1099,-126.5 1145,-126.5 1145,-145.75"/>
<text text-anchor="middle" x="1122" y="-132.25" font-family="Helvetica,sans-Serif" font-size="10.00">loadfile</text>
</a>
</g>
</g>
<!-- dir_c70e074c247f0fc7ba2b5b627ea24568&#45;&gt;dir_9be0baa3d4a3e9f480a9ee70594037fa -->
<g id="edge9" class="edge">
<title>dir_c70e074c247f0fc7ba2b5b627ea24568&#45;&gt;dir_9be0baa3d4a3e9f480a9ee70594037fa</title>
<g id="a_edge9"><a xlink:href="dir_000184_000171.html" target="_top">
<path fill="none" stroke="#63b8ff" d="M1098.51,-127.09C1054.56,-112.33 956.68,-80.84 872,-63.25 783.07,-44.78 676.26,-33.9 623.62,-29.27"/>
<polygon fill="#63b8ff" stroke="#63b8ff" points="624.1,-25.8 613.84,-28.43 623.5,-32.78 624.1,-25.8"/>
</a>
</g>
<g id="a_edge9&#45;headlabel"><a xlink:href="dir_000184_000171.html" target="_top" xlink:title="12">
<text text-anchor="middle" x="626.42" y="-19.27" font-family="Helvetica,sans-Serif" font-size="10.00" fill="#63b8ff">12</text>
</a>
</g>
</g>
<!-- dir_c70e074c247f0fc7ba2b5b627ea24568&#45;&gt;dir_bdd9a5d540de89e9fe90efdfc6973a4f -->
<g id="edge10" class="edge">
<title>dir_c70e074c247f0fc7ba2b5b627ea24568&#45;&gt;dir_bdd9a5d540de89e9fe90efdfc6973a4f</title>
<g id="a_edge10"><a xlink:href="dir_000184_000022.html" target="_top">
<path fill="none" stroke="#63b8ff" d="M1145.32,-128.38C1148.23,-127.67 1151.17,-127.02 1154,-126.5 1306.01,-98.29 1347.38,-115.23 1500,-90.5 1500.24,-90.46 1500.48,-90.42 1500.72,-90.38"/>
<polygon fill="#63b8ff" stroke="#63b8ff" points="1501.13,-93.87 1510.31,-88.58 1499.84,-86.99 1501.13,-93.87"/>
</a>
</g>
<g id="a_edge10&#45;headlabel"><a xlink:href="dir_000184_000022.html" target="_top" xlink:title="1">
<text text-anchor="middle" x="1499.61" y="-93.17" font-family="Helvetica,sans-Serif" font-size="10.00" fill="#63b8ff">1</text>
</a>
</g>
</g>
<!-- dir_87c98c5970299b04095b64caaae46c44 -->
<g id="node10" class="node">
<title>dir_87c98c5970299b04095b64caaae46c44</title>
<g id="a_node10"><a xlink:href="dir_87c98c5970299b04095b64caaae46c44.html" target="_top" xlink:title="modload">
<polygon fill="#60a2e3" stroke="#404040" points="819.38,-145.75 766.62,-145.75 766.62,-126.5 819.38,-126.5 819.38,-145.75"/>
<text text-anchor="middle" x="793" y="-132.25" font-family="Helvetica,sans-Serif" font-size="10.00">modload</text>
</a>
</g>
</g>
<!-- dir_87c98c5970299b04095b64caaae46c44&#45;&gt;dir_9be0baa3d4a3e9f480a9ee70594037fa -->
<g id="edge11" class="edge">
<title>dir_87c98c5970299b04095b64caaae46c44&#45;&gt;dir_9be0baa3d4a3e9f480a9ee70594037fa</title>
<g id="a_edge11"><a xlink:href="dir_000193_000171.html" target="_top">
<path fill="none" stroke="#63b8ff" d="M776.13,-126.06C741.15,-107.27 660.47,-63.94 618.11,-41.18"/>
<polygon fill="#63b8ff" stroke="#63b8ff" points="619.77,-38.1 609.3,-36.46 616.46,-44.27 619.77,-38.1"/>
</a>
</g>
<g id="a_edge11&#45;headlabel"><a xlink:href="dir_000193_000171.html" target="_top" xlink:title="12">
<text text-anchor="middle" x="622.94" y="-32.71" font-family="Helvetica,sans-Serif" font-size="10.00" fill="#63b8ff">12</text>
</a>
</g>
</g>
<!-- dir_37a0b5ec4566a4318c90e018cb9457b6 -->
<g id="node11" class="node">
<title>dir_37a0b5ec4566a4318c90e018cb9457b6</title>
<g id="a_node11"><a xlink:href="dir_37a0b5ec4566a4318c90e018cb9457b6.html" target="_top" xlink:title="mtapman">
<polygon fill="#60a2e3" stroke="#404040" points="894.25,-145.75 837.75,-145.75 837.75,-126.5 894.25,-126.5 894.25,-145.75"/>
<text text-anchor="middle" x="866" y="-132.25" font-family="Helvetica,sans-Serif" font-size="10.00">mtapman</text>
</a>
</g>
</g>
<!-- dir_37a0b5ec4566a4318c90e018cb9457b6&#45;&gt;dir_9be0baa3d4a3e9f480a9ee70594037fa -->
<g id="edge12" class="edge">
<title>dir_37a0b5ec4566a4318c90e018cb9457b6&#45;&gt;dir_9be0baa3d4a3e9f480a9ee70594037fa</title>
<g id="a_edge12"><a xlink:href="dir_000197_000171.html" target="_top">
<path fill="none" stroke="#63b8ff" d="M844.14,-126.11C810.63,-112.34 744.5,-85.32 688,-63.25 666.38,-54.8 641.92,-45.57 622.98,-38.49"/>
<polygon fill="#63b8ff" stroke="#63b8ff" points="624.26,-35.23 613.66,-35.02 621.81,-41.79 624.26,-35.23"/>
</a>
</g>
<g id="a_edge12&#45;headlabel"><a xlink:href="dir_000197_000171.html" target="_top" xlink:title="17">
<text text-anchor="middle" x="627.2" y="-29.42" font-family="Helvetica,sans-Serif" font-size="10.00" fill="#63b8ff">17</text>
</a>
</g>
</g>
<!-- dir_cb26f304a37e679cc21ccc4e4a07be73 -->
<g id="node12" class="node">
<title>dir_cb26f304a37e679cc21ccc4e4a07be73</title>
<g id="a_node12"><a xlink:href="dir_cb26f304a37e679cc21ccc4e4a07be73.html" target="_top" xlink:title="padman">
<polygon fill="#60a2e3" stroke="#404040" points="132.25,-145.75 81.75,-145.75 81.75,-126.5 132.25,-126.5 132.25,-145.75"/>
<text text-anchor="middle" x="107" y="-132.25" font-family="Helvetica,sans-Serif" font-size="10.00">padman</text>
</a>
</g>
</g>
<!-- dir_cb26f304a37e679cc21ccc4e4a07be73&#45;&gt;dir_9be0baa3d4a3e9f480a9ee70594037fa -->
<g id="edge13" class="edge">
<title>dir_cb26f304a37e679cc21ccc4e4a07be73&#45;&gt;dir_9be0baa3d4a3e9f480a9ee70594037fa</title>
<g id="a_edge13"><a xlink:href="dir_000213_000171.html" target="_top">
<path fill="none" stroke="#63b8ff" d="M132.57,-128.4C135.41,-127.73 138.26,-127.08 141,-126.5 234.94,-106.68 269.2,-135.53 354,-90.5 368.78,-82.65 365.23,-71.13 380,-63.25 437.41,-32.6 514.96,-26.74 558.27,-26.1"/>
<polygon fill="#63b8ff" stroke="#63b8ff" points="558.03,-29.6 568.01,-26.05 558,-22.6 558.03,-29.6"/>
</a>
</g>
<g id="a_edge13&#45;headlabel"><a xlink:href="dir_000213_000171.html" target="_top" xlink:title="43">
<text text-anchor="middle" x="555.97" y="-28.58" font-family="Helvetica,sans-Serif" font-size="10.00" fill="#63b8ff">43</text>
</a>
</g>
</g>
<!-- dir_1fd4d135da32a6b9ad91946f648cae84 -->
<g id="node21" class="node">
<title>dir_1fd4d135da32a6b9ad91946f648cae84</title>
<g id="a_node21"><a xlink:href="dir_1fd4d135da32a6b9ad91946f648cae84.html" target="_top" xlink:title="sio2man">
<polygon fill="#60a2e3" stroke="#404040" points="221.38,-90.5 168.62,-90.5 168.62,-71.25 221.38,-71.25 221.38,-90.5"/>
<text text-anchor="middle" x="195" y="-77" font-family="Helvetica,sans-Serif" font-size="10.00">sio2man</text>
</a>
</g>
</g>
<!-- dir_cb26f304a37e679cc21ccc4e4a07be73&#45;&gt;dir_1fd4d135da32a6b9ad91946f648cae84 -->
<g id="edge14" class="edge">
<title>dir_cb26f304a37e679cc21ccc4e4a07be73&#45;&gt;dir_1fd4d135da32a6b9ad91946f648cae84</title>
<g id="a_edge14"><a xlink:href="dir_000213_000242.html" target="_top">
<path fill="none" stroke="#63b8ff" d="M121.93,-126.09C135.2,-118.06 154.87,-106.16 170.45,-96.73"/>
<polygon fill="#63b8ff" stroke="#63b8ff" points="171.96,-99.91 178.7,-91.74 168.34,-93.92 171.96,-99.91"/>
</a>
</g>
<g id="a_edge14&#45;headlabel"><a xlink:href="dir_000213_000242.html" target="_top" xlink:title="2">
<text text-anchor="middle" x="171.65" y="-99.54" font-family="Helvetica,sans-Serif" font-size="10.00" fill="#63b8ff">2</text>
</a>
</g>
</g>
<!-- dir_6f170e5d4e2c7a590428c890b6770715 -->
<g id="node13" class="node">
<title>dir_6f170e5d4e2c7a590428c890b6770715</title>
<g id="a_node13"><a xlink:href="dir_6f170e5d4e2c7a590428c890b6770715.html" target="_top" xlink:title="reboot">
<polygon fill="#60a2e3" stroke="#404040" points="955.5,-145.75 912.5,-145.75 912.5,-126.5 955.5,-126.5 955.5,-145.75"/>
<text text-anchor="middle" x="934" y="-132.25" font-family="Helvetica,sans-Serif" font-size="10.00">reboot</text>
</a>
</g>
</g>
<!-- dir_6f170e5d4e2c7a590428c890b6770715&#45;&gt;dir_9be0baa3d4a3e9f480a9ee70594037fa -->
<g id="edge15" class="edge">
<title>dir_6f170e5d4e2c7a590428c890b6770715&#45;&gt;dir_9be0baa3d4a3e9f480a9ee70594037fa</title>
<g id="a_edge15"><a xlink:href="dir_000223_000171.html" target="_top">
<path fill="none" stroke="#63b8ff" d="M912.07,-127.13C874.03,-113.36 793.23,-84.61 724,-63.25 689.91,-52.73 650.46,-42.06 623.43,-34.96"/>
<polygon fill="#63b8ff" stroke="#63b8ff" points="624.33,-31.58 613.77,-32.45 622.57,-38.36 624.33,-31.58"/>
</a>
</g>
<g id="a_edge15&#45;headlabel"><a xlink:href="dir_000223_000171.html" target="_top" xlink:title="8">
<text text-anchor="middle" x="627.06" y="-25.48" font-family="Helvetica,sans-Serif" font-size="10.00" fill="#63b8ff">8</text>
</a>
</g>
</g>
<!-- dir_fe7329d8b89241d59f89f45fd75d2e77 -->
<g id="node14" class="node">
<title>dir_fe7329d8b89241d59f89f45fd75d2e77</title>
<g id="a_node14"><a xlink:href="dir_fe7329d8b89241d59f89f45fd75d2e77.html" target="_top" xlink:title="rmman">
<polygon fill="#60a2e3" stroke="#404040" points="196,-145.75 150,-145.75 150,-126.5 196,-126.5 196,-145.75"/>
<text text-anchor="middle" x="173" y="-132.25" font-family="Helvetica,sans-Serif" font-size="10.00">rmman</text>
</a>
</g>
</g>
<!-- dir_fe7329d8b89241d59f89f45fd75d2e77&#45;&gt;dir_9be0baa3d4a3e9f480a9ee70594037fa -->
<g id="edge16" class="edge">
<title>dir_fe7329d8b89241d59f89f45fd75d2e77&#45;&gt;dir_9be0baa3d4a3e9f480a9ee70594037fa</title>
<g id="a_edge16"><a xlink:href="dir_000225_000171.html" target="_top">
<path fill="none" stroke="#63b8ff" d="M196.38,-128.65C199.27,-127.9 202.2,-127.16 205,-126.5 282.26,-108.16 311.74,-131.08 380,-90.5 393.62,-82.4 389.33,-71.28 403,-63.25 451.85,-34.56 518.95,-27.83 558.37,-26.55"/>
<polygon fill="#63b8ff" stroke="#63b8ff" points="558.23,-30.05 568.15,-26.34 558.08,-23.05 558.23,-30.05"/>
</a>
</g>
<g id="a_edge16&#45;headlabel"><a xlink:href="dir_000225_000171.html" target="_top" xlink:title="17">
<text text-anchor="middle" x="556.21" y="-29.06" font-family="Helvetica,sans-Serif" font-size="10.00" fill="#63b8ff">17</text>
</a>
</g>
</g>
<!-- dir_47d6ec5167f7ee6ef257538cbd6ee8bb -->
<g id="node15" class="node">
<title>dir_47d6ec5167f7ee6ef257538cbd6ee8bb</title>
<g id="a_node15"><a xlink:href="dir_47d6ec5167f7ee6ef257538cbd6ee8bb.html" target="_top" xlink:title="rsio2man">
<polygon fill="#60a2e3" stroke="#404040" points="317.88,-90.5 262.12,-90.5 262.12,-71.25 317.88,-71.25 317.88,-90.5"/>
<text text-anchor="middle" x="290" y="-77" font-family="Helvetica,sans-Serif" font-size="10.00">rsio2man</text>
</a>
</g>
</g>
<!-- dir_fe7329d8b89241d59f89f45fd75d2e77&#45;&gt;dir_47d6ec5167f7ee6ef257538cbd6ee8bb -->
<g id="edge18" class="edge">
<title>dir_fe7329d8b89241d59f89f45fd75d2e77&#45;&gt;dir_47d6ec5167f7ee6ef257538cbd6ee8bb</title>
<g id="a_edge18"><a xlink:href="dir_000225_000229.html" target="_top">
<path fill="none" stroke="#63b8ff" d="M192.85,-126.09C211.17,-117.75 238.65,-105.25 259.71,-95.66"/>
<polygon fill="#63b8ff" stroke="#63b8ff" points="261.03,-98.91 268.68,-91.58 258.13,-92.54 261.03,-98.91"/>
</a>
</g>
<g id="a_edge18&#45;headlabel"><a xlink:href="dir_000225_000229.html" target="_top" xlink:title="2">
<text text-anchor="middle" x="260.31" y="-98.48" font-family="Helvetica,sans-Serif" font-size="10.00" fill="#63b8ff">2</text>
</a>
</g>
</g>
<!-- dir_fe7329d8b89241d59f89f45fd75d2e77&#45;&gt;dir_bdd9a5d540de89e9fe90efdfc6973a4f -->
<g id="edge17" class="edge">
<title>dir_fe7329d8b89241d59f89f45fd75d2e77&#45;&gt;dir_bdd9a5d540de89e9fe90efdfc6973a4f</title>
<g id="a_edge17"><a xlink:href="dir_000225_000022.html" target="_top">
<path fill="none" stroke="#63b8ff" d="M196.29,-128.17C199.2,-127.5 202.15,-126.92 205,-126.5 774.69,-43 928.55,-160.98 1500,-90.5 1500.24,-90.47 1500.48,-90.44 1500.72,-90.41"/>
<polygon fill="#63b8ff" stroke="#63b8ff" points="1501.05,-93.9 1510.35,-88.82 1499.91,-87 1501.05,-93.9"/>
</a>
</g>
<g id="a_edge17&#45;headlabel"><a xlink:href="dir_000225_000022.html" target="_top" xlink:title="1">
<text text-anchor="middle" x="1499.46" y="-93.17" font-family="Helvetica,sans-Serif" font-size="10.00" fill="#63b8ff">1</text>
</a>
</g>
</g>
<!-- dir_47d6ec5167f7ee6ef257538cbd6ee8bb&#45;&gt;dir_9be0baa3d4a3e9f480a9ee70594037fa -->
<g id="edge19" class="edge">
<title>dir_47d6ec5167f7ee6ef257538cbd6ee8bb&#45;&gt;dir_9be0baa3d4a3e9f480a9ee70594037fa</title>
<g id="a_edge19"><a xlink:href="dir_000229_000171.html" target="_top">
<path fill="none" stroke="#63b8ff" d="M304.84,-70.81C310.09,-67.98 316.15,-65.11 322,-63.25 404.35,-37.12 506.69,-29.63 558.17,-27.49"/>
<polygon fill="#63b8ff" stroke="#63b8ff" points="558.15,-30.99 568.02,-27.12 557.9,-23.99 558.15,-30.99"/>
</a>
</g>
<g id="a_edge19&#45;headlabel"><a xlink:href="dir_000229_000171.html" target="_top" xlink:title="1">
<text text-anchor="middle" x="556.18" y="-30.03" font-family="Helvetica,sans-Serif" font-size="10.00" fill="#63b8ff">1</text>
</a>
</g>
</g>
<!-- dir_4bae4802256ab45fc18d13b3c6375605 -->
<g id="node16" class="node">
<title>dir_4bae4802256ab45fc18d13b3c6375605</title>
<g id="a_node16"><a xlink:href="dir_4bae4802256ab45fc18d13b3c6375605.html" target="_top" xlink:title="sbusintr">
<polygon fill="#60a2e3" stroke="#404040" points="103.25,-90.5 52.75,-90.5 52.75,-71.25 103.25,-71.25 103.25,-90.5"/>
<text text-anchor="middle" x="78" y="-77" font-family="Helvetica,sans-Serif" font-size="10.00">sbusintr</text>
</a>
</g>
</g>
<!-- dir_4bae4802256ab45fc18d13b3c6375605&#45;&gt;dir_9be0baa3d4a3e9f480a9ee70594037fa -->
<g id="edge20" class="edge">
<title>dir_4bae4802256ab45fc18d13b3c6375605&#45;&gt;dir_9be0baa3d4a3e9f480a9ee70594037fa</title>
<g id="a_edge20"><a xlink:href="dir_000231_000171.html" target="_top">
<path fill="none" stroke="#63b8ff" d="M103.72,-73.87C119.81,-70.31 141.02,-65.97 160,-63.25 307.92,-42.04 486.29,-31.68 558.4,-28.11"/>
<polygon fill="#63b8ff" stroke="#63b8ff" points="558.49,-31.61 568.31,-27.63 558.15,-24.62 558.49,-31.61"/>
</a>
</g>
<g id="a_edge20&#45;headlabel"><a xlink:href="dir_000231_000171.html" target="_top" xlink:title="10">
<text text-anchor="middle" x="556.55" y="-30.67" font-family="Helvetica,sans-Serif" font-size="10.00" fill="#63b8ff">10</text>
</a>
</g>
</g>
<!-- dir_9b72dc07a1836a88bbfd185895c8f3de -->
<g id="node17" class="node">
<title>dir_9b72dc07a1836a88bbfd185895c8f3de</title>
<g id="a_node17"><a xlink:href="dir_9b72dc07a1836a88bbfd185895c8f3de.html" target="_top" xlink:title="sifcmd">
<polygon fill="#60a2e3" stroke="#404040" points="259.62,-145.75 214.38,-145.75 214.38,-126.5 259.62,-126.5 259.62,-145.75"/>
<text text-anchor="middle" x="237" y="-132.25" font-family="Helvetica,sans-Serif" font-size="10.00">sifcmd</text>
</a>
</g>
</g>
<!-- dir_9b72dc07a1836a88bbfd185895c8f3de&#45;&gt;dir_9be0baa3d4a3e9f480a9ee70594037fa -->
<g id="edge21" class="edge">
<title>dir_9b72dc07a1836a88bbfd185895c8f3de&#45;&gt;dir_9be0baa3d4a3e9f480a9ee70594037fa</title>
<g id="a_edge21"><a xlink:href="dir_000237_000171.html" target="_top">
<path fill="none" stroke="#63b8ff" d="M260.07,-128.9C263.08,-128.09 266.11,-127.28 269,-126.5 328.55,-110.48 351.7,-124.72 403,-90.5 415.72,-82.01 411.09,-71.44 424,-63.25 465.33,-37.05 522.69,-29.4 558.29,-27.28"/>
<polygon fill="#63b8ff" stroke="#63b8ff" points="558.14,-30.79 567.96,-26.83 557.81,-23.8 558.14,-30.79"/>
</a>
</g>
<g id="a_edge21&#45;headlabel"><a xlink:href="dir_000237_000171.html" target="_top" xlink:title="7">
<text text-anchor="middle" x="556.19" y="-29.85" font-family="Helvetica,sans-Serif" font-size="10.00" fill="#63b8ff">7</text>
</a>
</g>
</g>
<!-- dir_d660f1d0a410b188ebc642aba8c19599 -->
<g id="node18" class="node">
<title>dir_d660f1d0a410b188ebc642aba8c19599</title>
<g id="a_node18"><a xlink:href="dir_d660f1d0a410b188ebc642aba8c19599.html" target="_top" xlink:title="sifinit">
<polygon fill="#60a2e3" stroke="#404040" points="316.25,-145.75 277.75,-145.75 277.75,-126.5 316.25,-126.5 316.25,-145.75"/>
<text text-anchor="middle" x="297" y="-132.25" font-family="Helvetica,sans-Serif" font-size="10.00">sifinit</text>
</a>
</g>
</g>
<!-- dir_d660f1d0a410b188ebc642aba8c19599&#45;&gt;dir_9be0baa3d4a3e9f480a9ee70594037fa -->
<g id="edge22" class="edge">
<title>dir_d660f1d0a410b188ebc642aba8c19599&#45;&gt;dir_9be0baa3d4a3e9f480a9ee70594037fa</title>
<g id="a_edge22"><a xlink:href="dir_000238_000171.html" target="_top">
<path fill="none" stroke="#63b8ff" d="M316.71,-128.88C350.09,-118.21 415.05,-96.97 424,-90.5 436.39,-81.54 432.21,-71.63 445,-63.25 479.5,-40.65 526.96,-31.99 558.28,-28.68"/>
<polygon fill="#63b8ff" stroke="#63b8ff" points="558.29,-32.19 567.93,-27.79 557.65,-25.22 558.29,-32.19"/>
</a>
</g>
<g id="a_edge22&#45;headlabel"><a xlink:href="dir_000238_000171.html" target="_top" xlink:title="4">
<text text-anchor="middle" x="556.48" y="-31.34" font-family="Helvetica,sans-Serif" font-size="10.00" fill="#63b8ff">4</text>
</a>
</g>
</g>
<!-- dir_a0d37aaf829787e8da99f7ff6597b371 -->
<g id="node19" class="node">
<title>dir_a0d37aaf829787e8da99f7ff6597b371</title>
<g id="a_node19"><a xlink:href="dir_a0d37aaf829787e8da99f7ff6597b371.html" target="_top" xlink:title="sifman">
<polygon fill="#60a2e3" stroke="#404040" points="1208.62,-145.75 1163.38,-145.75 1163.38,-126.5 1208.62,-126.5 1208.62,-145.75"/>
<text text-anchor="middle" x="1186" y="-132.25" font-family="Helvetica,sans-Serif" font-size="10.00">sifman</text>
</a>
</g>
</g>
<!-- dir_a0d37aaf829787e8da99f7ff6597b371&#45;&gt;dir_9be0baa3d4a3e9f480a9ee70594037fa -->
<g id="edge23" class="edge">
<title>dir_a0d37aaf829787e8da99f7ff6597b371&#45;&gt;dir_9be0baa3d4a3e9f480a9ee70594037fa</title>
<g id="a_edge23"><a xlink:href="dir_000239_000171.html" target="_top">
<path fill="none" stroke="#63b8ff" d="M1163.17,-127.4C1118.54,-112.61 1016.35,-80.24 928,-63.25 817.7,-42.04 684.56,-32.1 623.94,-28.41"/>
<polygon fill="#63b8ff" stroke="#63b8ff" points="624.17,-24.92 613.98,-27.83 623.76,-31.91 624.17,-24.92"/>
</a>
</g>
<g id="a_edge23&#45;headlabel"><a xlink:href="dir_000239_000171.html" target="_top" xlink:title="4">
<text text-anchor="middle" x="626.42" y="-18.33" font-family="Helvetica,sans-Serif" font-size="10.00" fill="#63b8ff">4</text>
</a>
</g>
</g>
<!-- dir_a0d37aaf829787e8da99f7ff6597b371&#45;&gt;dir_bdd9a5d540de89e9fe90efdfc6973a4f -->
<g id="edge24" class="edge">
<title>dir_a0d37aaf829787e8da99f7ff6597b371&#45;&gt;dir_bdd9a5d540de89e9fe90efdfc6973a4f</title>
<g id="a_edge24"><a xlink:href="dir_000239_000022.html" target="_top">
<path fill="none" stroke="#63b8ff" d="M1208.98,-128.53C1212,-127.78 1215.06,-127.08 1218,-126.5 1341.95,-102 1375.52,-112.16 1500,-90.5 1500.24,-90.46 1500.48,-90.42 1500.72,-90.37"/>
<polygon fill="#63b8ff" stroke="#63b8ff" points="1501.15,-93.86 1510.3,-88.51 1499.82,-86.98 1501.15,-93.86"/>
</a>
</g>
<g id="a_edge24&#45;headlabel"><a xlink:href="dir_000239_000022.html" target="_top" xlink:title="2">
<text text-anchor="middle" x="1499.65" y="-93.16" font-family="Helvetica,sans-Serif" font-size="10.00" fill="#63b8ff">2</text>
</a>
</g>
</g>
<!-- dir_c3fae06f71c3e401160299d109ef6df7 -->
<g id="node20" class="node">
<title>dir_c3fae06f71c3e401160299d109ef6df7</title>
<g id="a_node20"><a xlink:href="dir_c3fae06f71c3e401160299d109ef6df7.html" target="_top" xlink:title="siftoo">
<polygon fill="#60a2e3" stroke="#404040" points="64,-145.75 24,-145.75 24,-126.5 64,-126.5 64,-145.75"/>
<text text-anchor="middle" x="44" y="-132.25" font-family="Helvetica,sans-Serif" font-size="10.00">siftoo</text>
</a>
</g>
</g>
<!-- dir_c3fae06f71c3e401160299d109ef6df7&#45;&gt;dir_9be0baa3d4a3e9f480a9ee70594037fa -->
<g id="edge25" class="edge">
<title>dir_c3fae06f71c3e401160299d109ef6df7&#45;&gt;dir_9be0baa3d4a3e9f480a9ee70594037fa</title>
<g id="a_edge25"><a xlink:href="dir_000240_000171.html" target="_top">
<path fill="none" stroke="#63b8ff" d="M64.5,-128.62C67.34,-127.84 70.23,-127.1 73,-126.5 184.39,-102.18 225.11,-141.67 327,-90.5 342.24,-82.85 338.81,-71 354,-63.25 389.07,-45.36 501.67,-33.91 558.11,-29.16"/>
<polygon fill="#63b8ff" stroke="#63b8ff" points="558.38,-32.64 568.06,-28.34 557.81,-25.67 558.38,-32.64"/>
</a>
</g>
<g id="a_edge25&#45;headlabel"><a xlink:href="dir_000240_000171.html" target="_top" xlink:title="13">
<text text-anchor="middle" x="556.54" y="-31.77" font-family="Helvetica,sans-Serif" font-size="10.00" fill="#63b8ff">13</text>
</a>
</g>
</g>
<!-- dir_c3fae06f71c3e401160299d109ef6df7&#45;&gt;dir_4bae4802256ab45fc18d13b3c6375605 -->
<g id="edge26" class="edge">
<title>dir_c3fae06f71c3e401160299d109ef6df7&#45;&gt;dir_4bae4802256ab45fc18d13b3c6375605</title>
<g id="a_edge26"><a xlink:href="dir_000240_000231.html" target="_top">
<path fill="none" stroke="#63b8ff" d="M49.61,-126.33C54.12,-119.28 60.59,-109.15 66.21,-100.33"/>
<polygon fill="#63b8ff" stroke="#63b8ff" points="69.02,-102.45 71.45,-92.13 63.12,-98.68 69.02,-102.45"/>
</a>
</g>
<g id="a_edge26&#45;headlabel"><a xlink:href="dir_000240_000231.html" target="_top" xlink:title="3">
<text text-anchor="middle" x="70.29" y="-101.85" font-family="Helvetica,sans-Serif" font-size="10.00" fill="#63b8ff">3</text>
</a>
</g>
</g>
<!-- dir_1fd4d135da32a6b9ad91946f648cae84&#45;&gt;dir_9be0baa3d4a3e9f480a9ee70594037fa -->
<g id="edge27" class="edge">
<title>dir_1fd4d135da32a6b9ad91946f648cae84&#45;&gt;dir_9be0baa3d4a3e9f480a9ee70594037fa</title>
<g id="a_edge27"><a xlink:href="dir_000242_000171.html" target="_top">
<path fill="none" stroke="#63b8ff" d="M221.62,-71.21C231.4,-68.3 242.62,-65.28 253,-63.25 363.78,-41.54 497.68,-31.83 558.33,-28.3"/>
<polygon fill="#63b8ff" stroke="#63b8ff" points="558.15,-31.82 567.94,-27.76 557.76,-24.83 558.15,-31.82"/>
</a>
</g>
<g id="a_edge27&#45;headlabel"><a xlink:href="dir_000242_000171.html" target="_top" xlink:title="19">
<text text-anchor="middle" x="556.24" y="-30.89" font-family="Helvetica,sans-Serif" font-size="10.00" fill="#63b8ff">19</text>
</a>
</g>
</g>
<!-- dir_a41af06f3bbae69c1382d5deb2bdd8e8 -->
<g id="node22" class="node">
<title>dir_a41af06f3bbae69c1382d5deb2bdd8e8</title>
<g id="a_node22"><a xlink:href="dir_a41af06f3bbae69c1382d5deb2bdd8e8.html" target="_top" xlink:title="ssbusc">
<polygon fill="#60a2e3" stroke="#404040" points="381.75,-145.75 334.25,-145.75 334.25,-126.5 381.75,-126.5 381.75,-145.75"/>
<text text-anchor="middle" x="358" y="-132.25" font-family="Helvetica,sans-Serif" font-size="10.00">ssbusc</text>
</a>
</g>
</g>
<!-- dir_a41af06f3bbae69c1382d5deb2bdd8e8&#45;&gt;dir_9be0baa3d4a3e9f480a9ee70594037fa -->
<g id="edge28" class="edge">
<title>dir_a41af06f3bbae69c1382d5deb2bdd8e8&#45;&gt;dir_9be0baa3d4a3e9f480a9ee70594037fa</title>
<g id="a_edge28"><a xlink:href="dir_000393_000171.html" target="_top">
<path fill="none" stroke="#63b8ff" d="M379.69,-126.06C397.9,-117.97 424.19,-105.17 445,-90.5 459.45,-80.31 458.73,-72.17 474,-63.25 500.37,-47.84 533.95,-38.2 558.36,-32.7"/>
<polygon fill="#63b8ff" stroke="#63b8ff" points="559,-36.14 568.06,-30.64 557.55,-29.29 559,-36.14"/>
</a>
</g>
<g id="a_edge28&#45;headlabel"><a xlink:href="dir_000393_000171.html" target="_top" xlink:title="4">
<text text-anchor="middle" x="557.56" y="-35.47" font-family="Helvetica,sans-Serif" font-size="10.00" fill="#63b8ff">4</text>
</a>
</g>
</g>
<!-- dir_952a988346c879bc3b2834e2377036db -->
<g id="node23" class="node">
<title>dir_952a988346c879bc3b2834e2377036db</title>
<g id="a_node23"><a xlink:href="dir_952a988346c879bc3b2834e2377036db.html" target="_top" xlink:title="stdio">
<polygon fill="#60a2e3" stroke="#404040" points="436.5,-145.75 399.5,-145.75 399.5,-126.5 436.5,-126.5 436.5,-145.75"/>
<text text-anchor="middle" x="418" y="-132.25" font-family="Helvetica,sans-Serif" font-size="10.00">stdio</text>
</a>
</g>
</g>
<!-- dir_952a988346c879bc3b2834e2377036db&#45;&gt;dir_9be0baa3d4a3e9f480a9ee70594037fa -->
<g id="edge29" class="edge">
<title>dir_952a988346c879bc3b2834e2377036db&#45;&gt;dir_9be0baa3d4a3e9f480a9ee70594037fa</title>
<g id="a_edge29"><a xlink:href="dir_000396_000171.html" target="_top">
<path fill="none" stroke="#63b8ff" d="M429.29,-126.1C447.41,-111.84 484.34,-83.61 518,-63.25 531.59,-55.03 547.27,-46.98 560.61,-40.54"/>
<polygon fill="#63b8ff" stroke="#63b8ff" points="561.81,-43.84 569.35,-36.39 558.81,-37.52 561.81,-43.84"/>
</a>
</g>
<g id="a_edge29&#45;headlabel"><a xlink:href="dir_000396_000171.html" target="_top" xlink:title="4">
<text text-anchor="middle" x="561.15" y="-43.43" font-family="Helvetica,sans-Serif" font-size="10.00" fill="#63b8ff">4</text>
</a>
</g>
</g>
<!-- dir_1bd32d4ef826aeeda00870843eb45c97 -->
<g id="node24" class="node">
<title>dir_1bd32d4ef826aeeda00870843eb45c97</title>
<g id="a_node24"><a xlink:href="dir_1bd32d4ef826aeeda00870843eb45c97.html" target="_top" xlink:title="sysclib">
<polygon fill="#60a2e3" stroke="#404040" points="1273,-145.75 1227,-145.75 1227,-126.5 1273,-126.5 1273,-145.75"/>
<text text-anchor="middle" x="1250" y="-132.25" font-family="Helvetica,sans-Serif" font-size="10.00">sysclib</text>
</a>
</g>
</g>
<!-- dir_1bd32d4ef826aeeda00870843eb45c97&#45;&gt;dir_9be0baa3d4a3e9f480a9ee70594037fa -->
<g id="edge30" class="edge">
<title>dir_1bd32d4ef826aeeda00870843eb45c97&#45;&gt;dir_9be0baa3d4a3e9f480a9ee70594037fa</title>
<g id="a_edge30"><a xlink:href="dir_000402_000171.html" target="_top">
<path fill="none" stroke="#63b8ff" d="M1226.65,-127.29C1180.99,-112.31 1076.44,-79.63 986,-63.25 853.03,-39.17 691.84,-30.49 623.81,-27.74"/>
<polygon fill="#63b8ff" stroke="#63b8ff" points="624.23,-24.26 614.1,-27.37 623.96,-31.25 624.23,-24.26"/>
</a>
</g>
<g id="a_edge30&#45;headlabel"><a xlink:href="dir_000402_000171.html" target="_top" xlink:title="78">
<text text-anchor="middle" x="626.41" y="-17.63" font-family="Helvetica,sans-Serif" font-size="10.00" fill="#63b8ff">78</text>
</a>
</g>
</g>
<!-- dir_1bd32d4ef826aeeda00870843eb45c97&#45;&gt;dir_bdd9a5d540de89e9fe90efdfc6973a4f -->
<g id="edge31" class="edge">
<title>dir_1bd32d4ef826aeeda00870843eb45c97&#45;&gt;dir_bdd9a5d540de89e9fe90efdfc6973a4f</title>
<g id="a_edge31"><a xlink:href="dir_000402_000022.html" target="_top">
<path fill="none" stroke="#63b8ff" d="M1273.35,-128.54C1276.25,-127.81 1279.19,-127.11 1282,-126.5 1377.97,-105.7 1403.58,-109.11 1500,-90.5 1500.24,-90.45 1500.48,-90.41 1500.72,-90.36"/>
<polygon fill="#63b8ff" stroke="#63b8ff" points="1501.19,-93.84 1510.28,-88.4 1499.78,-86.98 1501.19,-93.84"/>
</a>
</g>
<g id="a_edge31&#45;headlabel"><a xlink:href="dir_000402_000022.html" target="_top" xlink:title="1">
<text text-anchor="middle" x="1499.72" y="-93.16" font-family="Helvetica,sans-Serif" font-size="10.00" fill="#63b8ff">1</text>
</a>
</g>
</g>
<!-- dir_d3b40e87d731c1e886b7a70e6daaf700 -->
<g id="node25" class="node">
<title>dir_d3b40e87d731c1e886b7a70e6daaf700</title>
<g id="a_node25"><a xlink:href="dir_d3b40e87d731c1e886b7a70e6daaf700.html" target="_top" xlink:title="threadman">
<polygon fill="#60a2e3" stroke="#404040" points="1352.88,-145.75 1291.12,-145.75 1291.12,-126.5 1352.88,-126.5 1352.88,-145.75"/>
<text text-anchor="middle" x="1322" y="-132.25" font-family="Helvetica,sans-Serif" font-size="10.00">threadman</text>
</a>
</g>
</g>
<!-- dir_d3b40e87d731c1e886b7a70e6daaf700&#45;&gt;dir_9be0baa3d4a3e9f480a9ee70594037fa -->
<g id="edge32" class="edge">
<title>dir_d3b40e87d731c1e886b7a70e6daaf700&#45;&gt;dir_9be0baa3d4a3e9f480a9ee70594037fa</title>
<g id="a_edge32"><a xlink:href="dir_000411_000171.html" target="_top">
<path fill="none" stroke="#63b8ff" d="M1294.07,-126C1245.04,-110.4 1140.08,-78.75 1049,-63.25 891.08,-36.37 699.08,-29.12 623.65,-27.25"/>
<polygon fill="#63b8ff" stroke="#63b8ff" points="623.76,-23.75 613.68,-27.02 623.59,-30.75 623.76,-23.75"/>
</a>
</g>
<g id="a_edge32&#45;headlabel"><a xlink:href="dir_000411_000171.html" target="_top" xlink:title="46">
<text text-anchor="middle" x="625.9" y="-17.09" font-family="Helvetica,sans-Serif" font-size="10.00" fill="#63b8ff">46</text>
</a>
</g>
</g>
<!-- dir_d3b40e87d731c1e886b7a70e6daaf700&#45;&gt;dir_bdd9a5d540de89e9fe90efdfc6973a4f -->
<g id="edge33" class="edge">
<title>dir_d3b40e87d731c1e886b7a70e6daaf700&#45;&gt;dir_bdd9a5d540de89e9fe90efdfc6973a4f</title>
<g id="a_edge33"><a xlink:href="dir_000411_000022.html" target="_top">
<path fill="none" stroke="#63b8ff" d="M1353.09,-127.5C1392.08,-117.93 1458.91,-101.53 1500.92,-91.22"/>
<polygon fill="#63b8ff" stroke="#63b8ff" points="1501.72,-94.63 1510.6,-88.84 1500.06,-87.83 1501.72,-94.63"/>
</a>
</g>
<g id="a_edge33&#45;headlabel"><a xlink:href="dir_000411_000022.html" target="_top" xlink:title="1">
<text text-anchor="middle" x="1500.38" y="-94" font-family="Helvetica,sans-Serif" font-size="10.00" fill="#63b8ff">1</text>
</a>
</g>
</g>
<!-- dir_031757951e60c16ad930ba76071ecfef -->
<g id="node26" class="node">
<title>dir_031757951e60c16ad930ba76071ecfef</title>
<g id="a_node26"><a xlink:href="dir_031757951e60c16ad930ba76071ecfef.html" target="_top" xlink:title="timrman">
<polygon fill="#60a2e3" stroke="#404040" points="1422.62,-145.75 1371.38,-145.75 1371.38,-126.5 1422.62,-126.5 1422.62,-145.75"/>
<text text-anchor="middle" x="1397" y="-132.25" font-family="Helvetica,sans-Serif" font-size="10.00">timrman</text>
</a>
</g>
</g>
<!-- dir_031757951e60c16ad930ba76071ecfef&#45;&gt;dir_9be0baa3d4a3e9f480a9ee70594037fa -->
<g id="edge34" class="edge">
<title>dir_031757951e60c16ad930ba76071ecfef&#45;&gt;dir_9be0baa3d4a3e9f480a9ee70594037fa</title>
<g id="a_edge34"><a xlink:href="dir_000412_000171.html" target="_top">
<path fill="none" stroke="#63b8ff" d="M1371.19,-126.91C1321.81,-111.57 1210.35,-78.73 1114,-63.25 930.46,-33.76 706.9,-28.01 623.99,-26.89"/>
<polygon fill="#63b8ff" stroke="#63b8ff" points="624.13,-23.4 614.09,-26.78 624.05,-30.4 624.13,-23.4"/>
</a>
</g>
<g id="a_edge34&#45;headlabel"><a xlink:href="dir_000412_000171.html" target="_top" xlink:title="6">
<text text-anchor="middle" x="626.25" y="-16.71" font-family="Helvetica,sans-Serif" font-size="10.00" fill="#63b8ff">6</text>
</a>
</g>
</g>
<!-- dir_031757951e60c16ad930ba76071ecfef&#45;&gt;dir_bdd9a5d540de89e9fe90efdfc6973a4f -->
<g id="edge35" class="edge">
<title>dir_031757951e60c16ad930ba76071ecfef&#45;&gt;dir_bdd9a5d540de89e9fe90efdfc6973a4f</title>
<g id="a_edge35"><a xlink:href="dir_000412_000022.html" target="_top">
<path fill="none" stroke="#63b8ff" d="M1421.09,-126.09C1443.94,-117.52 1478.52,-104.56 1504.33,-94.88"/>
<polygon fill="#63b8ff" stroke="#63b8ff" points="1505.24,-98.27 1513.38,-91.48 1502.78,-91.72 1505.24,-98.27"/>
</a>
</g>
<g id="a_edge35&#45;headlabel"><a xlink:href="dir_000412_000022.html" target="_top" xlink:title="1">
<text text-anchor="middle" x="1504.29" y="-97.79" font-family="Helvetica,sans-Serif" font-size="10.00" fill="#63b8ff">1</text>
</a>
</g>
</g>
<!-- dir_ba5b6e33a21a738024e426bc2a53820a -->
<g id="node27" class="node">
<title>dir_ba5b6e33a21a738024e426bc2a53820a</title>
<g id="a_node27"><a xlink:href="dir_ba5b6e33a21a738024e426bc2a53820a.html" target="_top" xlink:title="udnl">
<polygon fill="#60a2e3" stroke="#404040" points="489,-145.75 455,-145.75 455,-126.5 489,-126.5 489,-145.75"/>
<text text-anchor="middle" x="472" y="-132.25" font-family="Helvetica,sans-Serif" font-size="10.00">udnl</text>
</a>
</g>
</g>
<!-- dir_ba5b6e33a21a738024e426bc2a53820a&#45;&gt;dir_9be0baa3d4a3e9f480a9ee70594037fa -->
<g id="edge36" class="edge">
<title>dir_ba5b6e33a21a738024e426bc2a53820a&#45;&gt;dir_9be0baa3d4a3e9f480a9ee70594037fa</title>
<g id="a_edge36"><a xlink:href="dir_000415_000171.html" target="_top">
<path fill="none" stroke="#63b8ff" d="M481.56,-126.22C496.23,-112.6 525.18,-85.77 550,-63.25 557.36,-56.58 565.51,-49.28 572.59,-42.96"/>
<polygon fill="#63b8ff" stroke="#63b8ff" points="574.58,-45.88 579.72,-36.62 569.92,-40.65 574.58,-45.88"/>
</a>
</g>
<g id="a_edge36&#45;headlabel"><a xlink:href="dir_000415_000171.html" target="_top" xlink:title="17">
<text text-anchor="middle" x="574.91" y="-45.51" font-family="Helvetica,sans-Serif" font-size="10.00" fill="#63b8ff">17</text>
</a>
</g>
</g>
</g>
</svg>
