<?xml version="1.0" encoding="UTF-8" standalone="no"?>
<!DOCTYPE svg PUBLIC "-//W3C//DTD SVG 1.1//EN"
 "http://www.w3.org/Graphics/SVG/1.1/DTD/svg11.dtd">
<!-- Generated by graphviz version 9.0.0 (20230911.1827)
 -->
<!-- Title: iop/kernel/include/excepman.h Pages: 1 -->
<!--zoomable 105 -->

<svg id="main" version="1.1" xmlns="http://www.w3.org/2000/svg" xmlns:xlink="http://www.w3.org/1999/xlink" xml:space="preserve" onload="init(evt)">
<style type="text/css"><![CDATA[
.node, .edge {opacity: 0.7;}
.node.selected, .edge.selected {opacity: 1;}
.edge:hover path { stroke: red; }
.edge:hover polygon { stroke: red; fill: red; }
]]></style>

<defs>
  <circle id="rim" cx="0" cy="0" r="7"/>
  <circle id="rim2" cx="0" cy="0" r="3.5"/>
  <g id="zoomPlus">
    <use xlink:href="#rim" fill="#404040"><set attributeName="fill" to="#808080" begin="zoomplus.mouseover" end="zoomplus.mouseout"/></use>
    <path d="M-4,0h8M0,-4v8" fill="none" stroke="white" stroke-width="1.5" pointer-events="none"/>
  </g>
  <g id="zoomMin">
    <use xlink:href="#rim" fill="#404040"><set attributeName="fill" to="#808080" begin="zoomminus.mouseover" end="zoomminus.mouseout"/></use>
    <path d="M-4,0h8" fill="none" stroke="white" stroke-width="1.5" pointer-events="none"/>
  </g>
  <g id="arrowUp" transform="translate(30 24)">
    <use xlink:href="#rim"/>
    <path pointer-events="none" fill="none" stroke="white" stroke-width="1.5" d="M0,-3.0v7 M-2.5,-0.5L0,-3.0L2.5,-0.5"/>
  </g>
  <g id="arrowRight" transform="rotate(90) translate(36 -43)">
    <use xlink:href="#rim"/>
    <path pointer-events="none" fill="none" stroke="white" stroke-width="1.5" d="M0,-3.0v7 M-2.5,-0.5L0,-3.0L2.5,-0.5"/>
  </g>
  <g id="arrowDown" transform="rotate(180) translate(-30 -48)">
    <use xlink:href="#rim"/>
    <path pointer-events="none" fill="none" stroke="white" stroke-width="1.5" d="M0,-3.0v7 M-2.5,-0.5L0,-3.0L2.5,-0.5"/>
  </g>
  <g id="arrowLeft" transform="rotate(270) translate(-36 17)">
    <use xlink:href="#rim"/>
    <path pointer-events="none" fill="none" stroke="white" stroke-width="1.5" d="M0,-3.0v7 M-2.5,-0.5L0,-3.0L2.5,-0.5"/>
  </g>
  <g id="resetDef">
    <use xlink:href="#rim2" fill="#404040"><set attributeName="fill" to="#808080" begin="reset.mouseover" end="reset.mouseout"/></use>
  </g>
</defs>
<script type="application/ecmascript">
var viewWidth = 1379;
var viewHeight = 105;
var sectionId = 'dynsection-1';
</script>
<script type="application/ecmascript" xlink:href="svg.min.js"/>
<svg id="graph" class="graph">
<g id="viewport">
<title>iop/kernel/include/excepman.h</title>
<!-- Node1 -->
<g id="Node000001" class="node">
<title>Node1</title>
<g id="a_Node000001"><a xlink:title=" ">
<polygon fill="#999999" stroke="#666666" points="756.25,-97 664.5,-97 664.5,-66.5 756.25,-66.5 756.25,-97"/>
<text text-anchor="start" x="672.5" y="-83.5" font-family="Helvetica,sans-Serif" font-size="10.00">iop/kernel/include</text>
<text text-anchor="middle" x="710.38" y="-72.25" font-family="Helvetica,sans-Serif" font-size="10.00">/excepman.h</text>
</a>
</g>
</g>
<!-- Node2 -->
<g id="Node000002" class="node">
<title>Node2</title>
<g id="a_Node000002"><a xlink:href="common_2sbus_2src_2irx__imports_8h_source.html" target="_top" xlink:title=" ">
<polygon fill="white" stroke="#666666" points="106.75,-30.5 0,-30.5 0,0 106.75,0 106.75,-30.5"/>
<text text-anchor="start" x="8" y="-17" font-family="Helvetica,sans-Serif" font-size="10.00">common/sbus/src/irx</text>
<text text-anchor="middle" x="53.38" y="-5.75" font-family="Helvetica,sans-Serif" font-size="10.00">_imports.h</text>
</a>
</g>
</g>
<!-- Node1&#45;&gt;Node2 -->
<g id="edge1_Node000001_Node000002" class="edge">
<title>Node1&#45;&gt;Node2</title>
<g id="a_edge1_Node000001_Node000002"><a xlink:title=" ">
<path fill="none" stroke="#63b8ff" d="M652.76,-78.6C546.14,-74.01 311.09,-61.1 115.38,-30.5 112.65,-30.07 109.86,-29.59 107.05,-29.08"/>
<polygon fill="#63b8ff" stroke="#63b8ff" points="652.55,-82.09 662.69,-79.02 652.84,-75.1 652.55,-82.09"/>
</a>
</g>
</g>
<!-- Node3 -->
<g id="Node000003" class="node">
<title>Node3</title>
<g id="a_Node000003"><a xlink:href="iop_2debug_2iop__sbusdbg_2src_2irx__imports_8h_source.html" target="_top" xlink:title=" ">
<polygon fill="white" stroke="#666666" points="240.25,-30.5 124.5,-30.5 124.5,0 240.25,0 240.25,-30.5"/>
<text text-anchor="start" x="132.5" y="-17" font-family="Helvetica,sans-Serif" font-size="10.00">iop/debug/iop_sbusdbg</text>
<text text-anchor="middle" x="182.38" y="-5.75" font-family="Helvetica,sans-Serif" font-size="10.00">/src/irx_imports.h</text>
</a>
</g>
</g>
<!-- Node1&#45;&gt;Node3 -->
<g id="edge2_Node000001_Node000003" class="edge">
<title>Node1&#45;&gt;Node3</title>
<g id="a_edge2_Node000001_Node000003"><a xlink:title=" ">
<path fill="none" stroke="#63b8ff" d="M652.77,-76.35C565.26,-69.25 393.73,-53.66 249.38,-30.5 246.44,-30.03 243.44,-29.51 240.41,-28.97"/>
<polygon fill="#63b8ff" stroke="#63b8ff" points="652.28,-79.82 662.53,-77.14 652.84,-72.85 652.28,-79.82"/>
</a>
</g>
</g>
<!-- Node4 -->
<g id="Node000004" class="node">
<title>Node4</title>
<g id="a_Node000004"><a xlink:href="iop_2debug_2iop__sbusdbg_2src_2main_8c_source.html" target="_top" xlink:title=" ">
<polygon fill="white" stroke="#666666" points="374.25,-30.5 258.5,-30.5 258.5,0 374.25,0 374.25,-30.5"/>
<text text-anchor="start" x="266.5" y="-17" font-family="Helvetica,sans-Serif" font-size="10.00">iop/debug/iop_sbusdbg</text>
<text text-anchor="middle" x="316.38" y="-5.75" font-family="Helvetica,sans-Serif" font-size="10.00">/src/main.c</text>
</a>
</g>
</g>
<!-- Node1&#45;&gt;Node4 -->
<g id="edge3_Node000001_Node000004" class="edge">
<title>Node1&#45;&gt;Node4</title>
<g id="a_edge3_Node000001_Node000004"><a xlink:title=" ">
<path fill="none" stroke="#63b8ff" d="M652.91,-72.93C587.48,-63.8 477.45,-47.72 383.38,-30.5 380.45,-29.96 377.46,-29.4 374.44,-28.81"/>
<polygon fill="#63b8ff" stroke="#63b8ff" points="652.32,-76.38 662.71,-74.29 653.28,-69.45 652.32,-76.38"/>
</a>
</g>
</g>
<!-- Node5 -->
<g id="Node000005" class="node">
<title>Node5</title>
<g id="a_Node000005"><a xlink:href="sbus__dbg_8c_source.html" target="_top" xlink:title=" ">
<polygon fill="white" stroke="#666666" points="508.25,-30.5 392.5,-30.5 392.5,0 508.25,0 508.25,-30.5"/>
<text text-anchor="start" x="400.5" y="-17" font-family="Helvetica,sans-Serif" font-size="10.00">iop/debug/iop_sbusdbg</text>
<text text-anchor="middle" x="450.38" y="-5.75" font-family="Helvetica,sans-Serif" font-size="10.00">/src/sbus_dbg.c</text>
</a>
</g>
</g>
<!-- Node1&#45;&gt;Node5 -->
<g id="edge4_Node000001_Node000005" class="edge">
<title>Node1&#45;&gt;Node5</title>
<g id="a_edge4_Node000001_Node000005"><a xlink:title=" ">
<path fill="none" stroke="#63b8ff" d="M653.07,-66.53C610.12,-55.88 551.55,-41.35 508.42,-30.65"/>
<polygon fill="#63b8ff" stroke="#63b8ff" points="652.17,-69.92 662.72,-68.93 653.86,-63.12 652.17,-69.92"/>
</a>
</g>
</g>
<!-- Node6 -->
<g id="Node000006" class="node">
<title>Node6</title>
<g id="a_Node000006"><a xlink:href="sbus__tty_8c_source.html" target="_top" xlink:title=" ">
<polygon fill="white" stroke="#666666" points="642.25,-30.5 526.5,-30.5 526.5,0 642.25,0 642.25,-30.5"/>
<text text-anchor="start" x="534.5" y="-17" font-family="Helvetica,sans-Serif" font-size="10.00">iop/debug/iop_sbusdbg</text>
<text text-anchor="middle" x="584.38" y="-5.75" font-family="Helvetica,sans-Serif" font-size="10.00">/src/sbus_tty.c</text>
</a>
</g>
</g>
<!-- Node1&#45;&gt;Node6 -->
<g id="edge5_Node000001_Node000006" class="edge">
<title>Node1&#45;&gt;Node6</title>
<g id="a_edge5_Node000001_Node000006"><a xlink:title=" ">
<path fill="none" stroke="#63b8ff" d="M671.65,-60.93C652.68,-51.21 630.23,-39.72 612.85,-30.83"/>
<polygon fill="#63b8ff" stroke="#63b8ff" points="669.94,-63.98 680.44,-65.42 673.13,-57.75 669.94,-63.98"/>
</a>
</g>
</g>
<!-- Node7 -->
<g id="Node000007" class="node">
<title>Node7</title>
<g id="a_Node000007"><a xlink:href="iop__debug_8c.html" target="_top" xlink:title=" ">
<polygon fill="white" stroke="#666666" points="760.38,-30.5 660.38,-30.5 660.38,0 760.38,0 760.38,-30.5"/>
<text text-anchor="start" x="668.38" y="-17" font-family="Helvetica,sans-Serif" font-size="10.00">iop/debug/iopdebug</text>
<text text-anchor="middle" x="710.38" y="-5.75" font-family="Helvetica,sans-Serif" font-size="10.00">/src/iop_debug.c</text>
</a>
</g>
</g>
<!-- Node1&#45;&gt;Node7 -->
<g id="edge6_Node000001_Node000007" class="edge">
<title>Node1&#45;&gt;Node7</title>
<g id="a_edge6_Node000001_Node000007"><a xlink:title=" ">
<path fill="none" stroke="#63b8ff" d="M710.38,-54.81C710.38,-46.64 710.38,-37.91 710.38,-30.83"/>
<polygon fill="#63b8ff" stroke="#63b8ff" points="706.88,-54.6 710.38,-64.6 713.88,-54.6 706.88,-54.6"/>
</a>
</g>
</g>
<!-- Node8 -->
<g id="Node000008" class="node">
<title>Node8</title>
<g id="a_Node000008"><a xlink:href="iop_2debug_2iopdebug_2src_2irx__imports_8h_source.html" target="_top" xlink:title=" ">
<polygon fill="white" stroke="#666666" points="878.38,-30.5 778.38,-30.5 778.38,0 878.38,0 878.38,-30.5"/>
<text text-anchor="start" x="786.38" y="-17" font-family="Helvetica,sans-Serif" font-size="10.00">iop/debug/iopdebug</text>
<text text-anchor="middle" x="828.38" y="-5.75" font-family="Helvetica,sans-Serif" font-size="10.00">/src/irx_imports.h</text>
</a>
</g>
</g>
<!-- Node1&#45;&gt;Node8 -->
<g id="edge7_Node000001_Node000008" class="edge">
<title>Node1&#45;&gt;Node8</title>
<g id="a_edge7_Node000001_Node000008"><a xlink:title=" ">
<path fill="none" stroke="#63b8ff" d="M747.13,-60.66C764.8,-51 785.58,-39.64 801.7,-30.83"/>
<polygon fill="#63b8ff" stroke="#63b8ff" points="745.58,-57.52 738.48,-65.39 748.93,-63.66 745.58,-57.52"/>
</a>
</g>
</g>
<!-- Node9 -->
<g id="Node000009" class="node">
<title>Node9</title>
<g id="a_Node000009"><a xlink:href="ioptrap_8c.html" target="_top" xlink:title=" ">
<polygon fill="white" stroke="#666666" points="1002.75,-30.5 896,-30.5 896,0 1002.75,0 1002.75,-30.5"/>
<text text-anchor="start" x="904" y="-17" font-family="Helvetica,sans-Serif" font-size="10.00">iop/debug/ioptrap/src</text>
<text text-anchor="middle" x="949.38" y="-5.75" font-family="Helvetica,sans-Serif" font-size="10.00">/ioptrap.c</text>
</a>
</g>
</g>
<!-- Node1&#45;&gt;Node9 -->
<g id="edge8_Node000001_Node000009" class="edge">
<title>Node1&#45;&gt;Node9</title>
<g id="a_edge8_Node000001_Node000009"><a xlink:title=" ">
<path fill="none" stroke="#63b8ff" d="M767.36,-65.37C806.25,-54.87 857.44,-41.06 895.62,-30.76"/>
<polygon fill="#63b8ff" stroke="#63b8ff" points="766.94,-61.86 758.2,-67.84 768.77,-68.62 766.94,-61.86"/>
</a>
</g>
</g>
<!-- Node10 -->
<g id="Node000010" class="node">
<title>Node10</title>
<g id="a_Node000010"><a xlink:href="iop_2debug_2ioptrap_2src_2irx__imports_8h_source.html" target="_top" xlink:title=" ">
<polygon fill="white" stroke="#666666" points="1127.75,-30.5 1021,-30.5 1021,0 1127.75,0 1127.75,-30.5"/>
<text text-anchor="start" x="1029" y="-17" font-family="Helvetica,sans-Serif" font-size="10.00">iop/debug/ioptrap/src</text>
<text text-anchor="middle" x="1074.38" y="-5.75" font-family="Helvetica,sans-Serif" font-size="10.00">/irx_imports.h</text>
</a>
</g>
</g>
<!-- Node1&#45;&gt;Node10 -->
<g id="edge9_Node000001_Node000010" class="edge">
<title>Node1&#45;&gt;Node10</title>
<g id="a_edge9_Node000001_Node000010"><a xlink:title=" ">
<path fill="none" stroke="#63b8ff" d="M767.93,-72.14C828.64,-62.83 927.01,-47.07 1011.38,-30.5 1014.46,-29.89 1017.62,-29.25 1020.8,-28.59"/>
<polygon fill="#63b8ff" stroke="#63b8ff" points="767.53,-68.66 758.17,-73.63 768.58,-75.58 767.53,-68.66"/>
</a>
</g>
</g>
<!-- Node11 -->
<g id="Node000011" class="node">
<title>Node11</title>
<g id="a_Node000011"><a xlink:href="iop_2debug_2ppctty_2src_2main_8c_source.html" target="_top" xlink:title=" ">
<polygon fill="white" stroke="#666666" points="1249.25,-30.5 1145.5,-30.5 1145.5,0 1249.25,0 1249.25,-30.5"/>
<text text-anchor="start" x="1153.5" y="-17" font-family="Helvetica,sans-Serif" font-size="10.00">iop/debug/ppctty/src</text>
<text text-anchor="middle" x="1197.38" y="-5.75" font-family="Helvetica,sans-Serif" font-size="10.00">/main.c</text>
</a>
</g>
</g>
<!-- Node1&#45;&gt;Node11 -->
<g id="edge10_Node000001_Node000011" class="edge">
<title>Node1&#45;&gt;Node11</title>
<g id="a_edge10_Node000001_Node000011"><a xlink:title=" ">
<path fill="none" stroke="#63b8ff" d="M767.98,-76.02C850.13,-68.81 1005.5,-53.43 1136.38,-30.5 1139.27,-29.99 1142.23,-29.43 1145.21,-28.84"/>
<polygon fill="#63b8ff" stroke="#63b8ff" points="767.81,-72.52 758.15,-76.87 768.41,-79.5 767.81,-72.52"/>
</a>
</g>
</g>
<!-- Node12 -->
<g id="Node000012" class="node">
<title>Node12</title>
<g id="a_Node000012"><a xlink:href="tty_8c_source.html" target="_top" xlink:title=" ">
<polygon fill="white" stroke="#666666" points="1371.25,-30.5 1267.5,-30.5 1267.5,0 1371.25,0 1371.25,-30.5"/>
<text text-anchor="start" x="1275.5" y="-17" font-family="Helvetica,sans-Serif" font-size="10.00">iop/debug/ppctty/src</text>
<text text-anchor="middle" x="1319.38" y="-5.75" font-family="Helvetica,sans-Serif" font-size="10.00">/tty.c</text>
</a>
</g>
</g>
<!-- Node1&#45;&gt;Node12 -->
<g id="edge11_Node000001_Node000012" class="edge">
<title>Node1&#45;&gt;Node12</title>
<g id="a_edge11_Node000001_Node000012"><a xlink:title=" ">
<path fill="none" stroke="#63b8ff" d="M767.83,-78.1C867.98,-72.89 1080.79,-59.24 1258.38,-30.5 1261.27,-30.03 1264.24,-29.5 1267.23,-28.93"/>
<polygon fill="#63b8ff" stroke="#63b8ff" points="767.79,-74.59 757.98,-78.6 768.15,-81.58 767.79,-74.59"/>
</a>
</g>
</g>
</g>
</svg>

<g id="navigator" transform="translate(0 0)" fill="#404254">
  <rect fill="#f2f5e9" fill-opacity="0.5" stroke="#606060" stroke-width=".5" x="0" y="0" width="60" height="60"/>
  <use id="zoomplus" xlink:href="#zoomPlus" x="17" y="9" onmousedown="handleZoom(evt,'in')"/>
  <use id="zoomminus" xlink:href="#zoomMin" x="42" y="9" onmousedown="handleZoom(evt,'out')"/>
  <use id="reset" xlink:href="#resetDef" x="30" y="36" onmousedown="handleReset()"/>
   <use id="arrowup" xlink:href="#arrowUp" x="0" y="0" onmousedown="handlePan(0,-1)"/>
  <use id="arrowright" xlink:href="#arrowRight" x="0" y="0" onmousedown="handlePan(1,0)"/>
  <use id="arrowdown" xlink:href="#arrowDown" x="0" y="0" onmousedown="handlePan(0,1)"/>
  <use id="arrowleft" xlink:href="#arrowLeft" x="0" y="0" onmousedown="handlePan(-1,0)"/>
</g>
<svg viewBox="0 0 15 15" width="100%" height="30px" preserveAspectRatio="xMaxYMin meet">
 <g id="arrow_out" transform="scale(0.3 0.3)">
  <a xlink:href="excepman_8h__dep__incl_org.svg" target="_base">
   <rect id="button" ry="5" rx="5" y="6" x="6" height="38" width="38"
        fill="#f2f5e9" fill-opacity="0.5" stroke="#606060" stroke-width="1.0"/>
   <path id="arrow"
     d="M 11.500037,31.436501 C 11.940474,20.09759 22.043105,11.32322 32.158766,21.979434 L 37.068811,17.246167 C 37.068811,17.246167 37.088388,32 37.088388,32 L 22.160133,31.978069 C 22.160133,31.978069 26.997745,27.140456 26.997745,27.140456 C 18.528582,18.264221 13.291696,25.230495 11.500037,31.436501 z"
     style="fill:#404040;"/>
  </a>
 </g>
</svg>

<style type='text/css'>
<![CDATA[
[data-mouse-over-selected='false'] { opacity: 0.7; }
[data-mouse-over-selected='true']  { opacity: 1.0; }
]]>
</style>
<script type="application/ecmascript"><![CDATA[
document.addEventListener('DOMContentLoaded', (event) => {
  highlightEdges();
  highlightAdjacentNodes();
});
]]></script>
</svg>
