<?xml version="1.0" encoding="UTF-8" standalone="no"?>
<!DOCTYPE svg PUBLIC "-//W3C//DTD SVG 1.1//EN"
 "http://www.w3.org/Graphics/SVG/1.1/DTD/svg11.dtd">
<!-- Generated by graphviz version 9.0.0 (20230911.1827)
 -->
<!-- Title: iop/kernel/include/kerr.h Pages: 1 -->
<svg width="1773pt" height="105pt"
 viewBox="0.00 0.00 1773.25 105.00" xmlns="http://www.w3.org/2000/svg" xmlns:xlink="http://www.w3.org/1999/xlink">
<g id="graph0" class="graph" transform="scale(1 1) rotate(0) translate(4 101)">
<title>iop/kernel/include/kerr.h</title>
<!-- Node1 -->
<g id="Node000001" class="node">
<title>Node1</title>
<g id="a_Node000001"><a xlink:title=" ">
<polygon fill="#999999" stroke="#666666" points="920.38,-97 828.62,-97 828.62,-66.5 920.38,-66.5 920.38,-97"/>
<text text-anchor="start" x="836.62" y="-83.5" font-family="Helvetica,sans-Serif" font-size="10.00">iop/kernel/include</text>
<text text-anchor="middle" x="874.5" y="-72.25" font-family="Helvetica,sans-Serif" font-size="10.00">/kerr.h</text>
</a>
</g>
</g>
<!-- Node2 -->
<g id="Node000002" class="node">
<title>Node2</title>
<g id="a_Node000002"><a xlink:href="fsck_8c_source.html" target="_top" xlink:title=" ">
<polygon fill="white" stroke="#666666" points="115,-24.88 0,-24.88 0,-5.63 115,-5.63 115,-24.88"/>
<text text-anchor="middle" x="57.5" y="-11.38" font-family="Helvetica,sans-Serif" font-size="10.00">iop/hdd/fsck/src/fsck.c</text>
</a>
</g>
</g>
<!-- Node1&#45;&gt;Node2 -->
<g id="edge1_Node000001_Node000002" class="edge">
<title>Node1&#45;&gt;Node2</title>
<g id="a_edge1_Node000001_Node000002"><a xlink:title=" ">
<path fill="none" stroke="#63b8ff" d="M817.29,-79.76C691.33,-76.97 380.74,-66.68 123.5,-30.5 114.21,-29.19 104.29,-27.31 95.02,-25.34"/>
<polygon fill="#63b8ff" stroke="#63b8ff" points="816.96,-83.26 827.03,-79.97 817.11,-76.26 816.96,-83.26"/>
</a>
</g>
</g>
<!-- Node3 -->
<g id="Node000003" class="node">
<title>Node3</title>
<g id="a_Node000003"><a xlink:href="fssk_8c_source.html" target="_top" xlink:title=" ">
<polygon fill="white" stroke="#666666" points="248,-24.88 133,-24.88 133,-5.63 248,-5.63 248,-24.88"/>
<text text-anchor="middle" x="190.5" y="-11.38" font-family="Helvetica,sans-Serif" font-size="10.00">iop/hdd/fssk/src/fssk.c</text>
</a>
</g>
</g>
<!-- Node1&#45;&gt;Node3 -->
<g id="edge2_Node000001_Node000003" class="edge">
<title>Node1&#45;&gt;Node3</title>
<g id="a_edge2_Node000001_Node000003"><a xlink:title=" ">
<path fill="none" stroke="#63b8ff" d="M816.69,-78.59C706.98,-73.92 461.22,-60.79 256.5,-30.5 247.34,-29.14 237.55,-27.27 228.39,-25.32"/>
<polygon fill="#63b8ff" stroke="#63b8ff" points="816.49,-82.08 826.62,-79 816.78,-75.09 816.49,-82.08"/>
</a>
</g>
</g>
<!-- Node4 -->
<g id="Node000004" class="node">
<title>Node4</title>
<g id="a_Node000004"><a xlink:href="hdsk_8c_source.html" target="_top" xlink:title=" ">
<polygon fill="white" stroke="#666666" points="385.25,-24.88 265.75,-24.88 265.75,-5.63 385.25,-5.63 385.25,-24.88"/>
<text text-anchor="middle" x="325.5" y="-11.38" font-family="Helvetica,sans-Serif" font-size="10.00">iop/hdd/hdsk/src/hdsk.c</text>
</a>
</g>
</g>
<!-- Node1&#45;&gt;Node4 -->
<g id="edge3_Node000001_Node000004" class="edge">
<title>Node1&#45;&gt;Node4</title>
<g id="a_edge3_Node000001_Node000004"><a xlink:title=" ">
<path fill="none" stroke="#63b8ff" d="M816.95,-76.58C726.63,-69.63 546.2,-54.05 394.5,-30.5 385.31,-29.07 375.5,-27.24 366.24,-25.36"/>
<polygon fill="#63b8ff" stroke="#63b8ff" points="816.56,-80.06 826.79,-77.33 817.09,-73.08 816.56,-80.06"/>
</a>
</g>
</g>
<!-- Node5 -->
<g id="Node000005" class="node">
<title>Node5</title>
<g id="a_Node000005"><a xlink:href="eeelfloader_8c_source.html" target="_top" xlink:title=" ">
<polygon fill="white" stroke="#666666" points="499.62,-30.5 403.38,-30.5 403.38,0 499.62,0 499.62,-30.5"/>
<text text-anchor="start" x="411.38" y="-17" font-family="Helvetica,sans-Serif" font-size="10.00">iop/system/loadfile</text>
<text text-anchor="middle" x="451.5" y="-5.75" font-family="Helvetica,sans-Serif" font-size="10.00">/src/eeelfloader.c</text>
</a>
</g>
</g>
<!-- Node1&#45;&gt;Node5 -->
<g id="edge4_Node000001_Node000005" class="edge">
<title>Node1&#45;&gt;Node5</title>
<g id="a_edge4_Node000001_Node000005"><a xlink:title=" ">
<path fill="none" stroke="#63b8ff" d="M817.19,-74.83C744.87,-66.91 616.85,-51.42 508.5,-30.5 505.7,-29.96 502.82,-29.37 499.93,-28.74"/>
<polygon fill="#63b8ff" stroke="#63b8ff" points="816.48,-78.27 826.8,-75.87 817.23,-71.31 816.48,-78.27"/>
</a>
</g>
</g>
<!-- Node6 -->
<g id="Node000006" class="node">
<title>Node6</title>
<g id="a_Node000006"><a xlink:href="iop_2system_2loadfile_2src_2loadfile_8c_source.html" target="_top" xlink:title=" ">
<polygon fill="white" stroke="#666666" points="613.62,-30.5 517.38,-30.5 517.38,0 613.62,0 613.62,-30.5"/>
<text text-anchor="start" x="525.38" y="-17" font-family="Helvetica,sans-Serif" font-size="10.00">iop/system/loadfile</text>
<text text-anchor="middle" x="565.5" y="-5.75" font-family="Helvetica,sans-Serif" font-size="10.00">/src/loadfile.c</text>
</a>
</g>
</g>
<!-- Node1&#45;&gt;Node6 -->
<g id="edge5_Node000001_Node000006" class="edge">
<title>Node1&#45;&gt;Node6</title>
<g id="a_edge5_Node000001_Node000006"><a xlink:title=" ">
<path fill="none" stroke="#63b8ff" d="M817.22,-70.14C766.04,-60.47 689.07,-45.45 622.5,-30.5 619.71,-29.87 616.85,-29.21 613.97,-28.54"/>
<polygon fill="#63b8ff" stroke="#63b8ff" points="816.41,-73.55 826.89,-71.96 817.71,-66.67 816.41,-73.55"/>
</a>
</g>
</g>
<!-- Node7 -->
<g id="Node000007" class="node">
<title>Node7</title>
<g id="a_Node000007"><a xlink:href="modload_8c_source.html" target="_top" xlink:title=" ">
<polygon fill="white" stroke="#666666" points="735,-30.5 632,-30.5 632,0 735,0 735,-30.5"/>
<text text-anchor="start" x="640" y="-17" font-family="Helvetica,sans-Serif" font-size="10.00">iop/system/modload</text>
<text text-anchor="middle" x="683.5" y="-5.75" font-family="Helvetica,sans-Serif" font-size="10.00">/src/modload.c</text>
</a>
</g>
</g>
<!-- Node1&#45;&gt;Node7 -->
<g id="edge6_Node000001_Node000007" class="edge">
<title>Node1&#45;&gt;Node7</title>
<g id="a_edge6_Node000001_Node000007"><a xlink:title=" ">
<path fill="none" stroke="#63b8ff" d="M820.58,-62.54C790.99,-52.55 754.77,-40.32 727,-30.94"/>
<polygon fill="#63b8ff" stroke="#63b8ff" points="819.13,-65.75 829.73,-65.63 821.37,-59.11 819.13,-65.75"/>
</a>
</g>
</g>
<!-- Node8 -->
<g id="Node000008" class="node">
<title>Node8</title>
<g id="a_Node000008"><a xlink:href="thbase_8c_source.html" target="_top" xlink:title=" ">
<polygon fill="white" stroke="#666666" points="865.5,-30.5 753.5,-30.5 753.5,0 865.5,0 865.5,-30.5"/>
<text text-anchor="start" x="761.5" y="-17" font-family="Helvetica,sans-Serif" font-size="10.00">iop/system/threadman</text>
<text text-anchor="middle" x="809.5" y="-5.75" font-family="Helvetica,sans-Serif" font-size="10.00">/src/thbase.c</text>
</a>
</g>
</g>
<!-- Node1&#45;&gt;Node8 -->
<g id="edge7_Node000001_Node000008" class="edge">
<title>Node1&#45;&gt;Node8</title>
<g id="a_edge7_Node000001_Node000008"><a xlink:title=" ">
<path fill="none" stroke="#63b8ff" d="M851.76,-58.19C842.61,-49.11 832.33,-38.9 824.19,-30.83"/>
<polygon fill="#63b8ff" stroke="#63b8ff" points="849.11,-60.49 858.68,-65.05 854.04,-55.52 849.11,-60.49"/>
</a>
</g>
</g>
<!-- Node9 -->
<g id="Node000009" class="node">
<title>Node9</title>
<g id="a_Node000009"><a xlink:href="thcommon_8c_source.html" target="_top" xlink:title=" ">
<polygon fill="white" stroke="#666666" points="995.5,-30.5 883.5,-30.5 883.5,0 995.5,0 995.5,-30.5"/>
<text text-anchor="start" x="891.5" y="-17" font-family="Helvetica,sans-Serif" font-size="10.00">iop/system/threadman</text>
<text text-anchor="middle" x="939.5" y="-5.75" font-family="Helvetica,sans-Serif" font-size="10.00">/src/thcommon.c</text>
</a>
</g>
</g>
<!-- Node1&#45;&gt;Node9 -->
<g id="edge8_Node000001_Node000009" class="edge">
<title>Node1&#45;&gt;Node9</title>
<g id="a_edge8_Node000001_Node000009"><a xlink:title=" ">
<path fill="none" stroke="#63b8ff" d="M897.24,-58.19C906.39,-49.11 916.67,-38.9 924.81,-30.83"/>
<polygon fill="#63b8ff" stroke="#63b8ff" points="894.96,-55.52 890.32,-65.05 899.89,-60.49 894.96,-55.52"/>
</a>
</g>
</g>
<!-- Node10 -->
<g id="Node000010" class="node">
<title>Node10</title>
<g id="a_Node000010"><a xlink:href="thevent_8c_source.html" target="_top" xlink:title=" ">
<polygon fill="white" stroke="#666666" points="1125.5,-30.5 1013.5,-30.5 1013.5,0 1125.5,0 1125.5,-30.5"/>
<text text-anchor="start" x="1021.5" y="-17" font-family="Helvetica,sans-Serif" font-size="10.00">iop/system/threadman</text>
<text text-anchor="middle" x="1069.5" y="-5.75" font-family="Helvetica,sans-Serif" font-size="10.00">/src/thevent.c</text>
</a>
</g>
</g>
<!-- Node1&#45;&gt;Node10 -->
<g id="edge9_Node000001_Node000010" class="edge">
<title>Node1&#45;&gt;Node10</title>
<g id="a_edge9_Node000001_Node000010"><a xlink:title=" ">
<path fill="none" stroke="#63b8ff" d="M929.55,-62.54C959.76,-52.55 996.73,-40.32 1025.09,-30.94"/>
<polygon fill="#63b8ff" stroke="#63b8ff" points="928.58,-59.18 920.19,-65.64 930.78,-65.82 928.58,-59.18"/>
</a>
</g>
</g>
<!-- Node11 -->
<g id="Node000011" class="node">
<title>Node11</title>
<g id="a_Node000011"><a xlink:href="thfpool_8c_source.html" target="_top" xlink:title=" ">
<polygon fill="white" stroke="#666666" points="1255.5,-30.5 1143.5,-30.5 1143.5,0 1255.5,0 1255.5,-30.5"/>
<text text-anchor="start" x="1151.5" y="-17" font-family="Helvetica,sans-Serif" font-size="10.00">iop/system/threadman</text>
<text text-anchor="middle" x="1199.5" y="-5.75" font-family="Helvetica,sans-Serif" font-size="10.00">/src/thfpool.c</text>
</a>
</g>
</g>
<!-- Node1&#45;&gt;Node11 -->
<g id="edge10_Node000001_Node000011" class="edge">
<title>Node1&#45;&gt;Node11</title>
<g id="a_edge10_Node000001_Node000011"><a xlink:title=" ">
<path fill="none" stroke="#63b8ff" d="M931.74,-70.11C984.48,-60.21 1064.87,-44.86 1134.5,-30.5 1137.33,-29.92 1140.22,-29.31 1143.15,-28.69"/>
<polygon fill="#63b8ff" stroke="#63b8ff" points="931.27,-66.64 922.08,-71.92 932.56,-73.52 931.27,-66.64"/>
</a>
</g>
</g>
<!-- Node12 -->
<g id="Node000012" class="node">
<title>Node12</title>
<g id="a_Node000012"><a xlink:href="thmsgbx_8c_source.html" target="_top" xlink:title=" ">
<polygon fill="white" stroke="#666666" points="1385.5,-30.5 1273.5,-30.5 1273.5,0 1385.5,0 1385.5,-30.5"/>
<text text-anchor="start" x="1281.5" y="-17" font-family="Helvetica,sans-Serif" font-size="10.00">iop/system/threadman</text>
<text text-anchor="middle" x="1329.5" y="-5.75" font-family="Helvetica,sans-Serif" font-size="10.00">/src/thmsgbx.c</text>
</a>
</g>
</g>
<!-- Node1&#45;&gt;Node12 -->
<g id="edge11_Node000001_Node000012" class="edge">
<title>Node1&#45;&gt;Node12</title>
<g id="a_edge11_Node000001_Node000012"><a xlink:title=" ">
<path fill="none" stroke="#63b8ff" d="M931.86,-74.95C1008.12,-66.88 1146.94,-50.92 1264.5,-30.5 1267.35,-30.01 1270.26,-29.47 1273.19,-28.91"/>
<polygon fill="#63b8ff" stroke="#63b8ff" points="931.71,-71.45 922.13,-75.97 932.44,-78.41 931.71,-71.45"/>
</a>
</g>
</g>
<!-- Node13 -->
<g id="Node000013" class="node">
<title>Node13</title>
<g id="a_Node000013"><a xlink:href="thsemap_8c_source.html" target="_top" xlink:title=" ">
<polygon fill="white" stroke="#666666" points="1515.5,-30.5 1403.5,-30.5 1403.5,0 1515.5,0 1515.5,-30.5"/>
<text text-anchor="start" x="1411.5" y="-17" font-family="Helvetica,sans-Serif" font-size="10.00">iop/system/threadman</text>
<text text-anchor="middle" x="1459.5" y="-5.75" font-family="Helvetica,sans-Serif" font-size="10.00">/src/thsemap.c</text>
</a>
</g>
</g>
<!-- Node1&#45;&gt;Node13 -->
<g id="edge12_Node000001_Node000013" class="edge">
<title>Node1&#45;&gt;Node13</title>
<g id="a_edge12_Node000001_Node000013"><a xlink:title=" ">
<path fill="none" stroke="#63b8ff" d="M931.84,-77.46C1027.96,-71.43 1227.47,-56.78 1394.5,-30.5 1397.35,-30.05 1400.27,-29.55 1403.21,-29.02"/>
<polygon fill="#63b8ff" stroke="#63b8ff" points="931.92,-73.94 922.15,-78.05 932.35,-80.93 931.92,-73.94"/>
</a>
</g>
</g>
<!-- Node14 -->
<g id="Node000014" class="node">
<title>Node14</title>
<g id="a_Node000014"><a xlink:href="thvpool_8c_source.html" target="_top" xlink:title=" ">
<polygon fill="white" stroke="#666666" points="1645.5,-30.5 1533.5,-30.5 1533.5,0 1645.5,0 1645.5,-30.5"/>
<text text-anchor="start" x="1541.5" y="-17" font-family="Helvetica,sans-Serif" font-size="10.00">iop/system/threadman</text>
<text text-anchor="middle" x="1589.5" y="-5.75" font-family="Helvetica,sans-Serif" font-size="10.00">/src/thvpool.c</text>
</a>
</g>
</g>
<!-- Node1&#45;&gt;Node14 -->
<g id="edge13_Node000001_Node000014" class="edge">
<title>Node1&#45;&gt;Node14</title>
<g id="a_edge13_Node000001_Node000014"><a xlink:title=" ">
<path fill="none" stroke="#63b8ff" d="M932.04,-78.98C1045.77,-74.89 1307.18,-62.56 1524.5,-30.5 1527.36,-30.08 1530.28,-29.6 1533.22,-29.09"/>
<polygon fill="#63b8ff" stroke="#63b8ff" points="932.23,-75.47 922.36,-79.32 932.48,-82.47 932.23,-75.47"/>
</a>
</g>
</g>
<!-- Node15 -->
<g id="Node000015" class="node">
<title>Node15</title>
<g id="a_Node000015"><a xlink:href="timrman_8c_source.html" target="_top" xlink:title=" ">
<polygon fill="white" stroke="#666666" points="1765.25,-30.5 1663.75,-30.5 1663.75,0 1765.25,0 1765.25,-30.5"/>
<text text-anchor="start" x="1671.75" y="-17" font-family="Helvetica,sans-Serif" font-size="10.00">iop/system/timrman</text>
<text text-anchor="middle" x="1714.5" y="-5.75" font-family="Helvetica,sans-Serif" font-size="10.00">/src/timrman.c</text>
</a>
</g>
</g>
<!-- Node1&#45;&gt;Node15 -->
<g id="edge14_Node000001_Node000015" class="edge">
<title>Node1&#45;&gt;Node15</title>
<g id="a_edge14_Node000001_Node000015"><a xlink:title=" ">
<path fill="none" stroke="#63b8ff" d="M931.68,-80.36C1061.12,-78.76 1386.15,-70.72 1654.5,-30.5 1657.46,-30.06 1660.5,-29.54 1663.55,-28.97"/>
<polygon fill="#63b8ff" stroke="#63b8ff" points="931.98,-76.86 922.02,-80.47 932.06,-83.86 931.98,-76.86"/>
</a>
</g>
</g>
</g>
</svg>
