<?xml version="1.0" encoding="UTF-8" standalone="no"?>
<!DOCTYPE svg PUBLIC "-//W3C//DTD SVG 1.1//EN"
 "http://www.w3.org/Graphics/SVG/1.1/DTD/svg11.dtd">
<!-- Generated by graphviz version 9.0.0 (20230911.1827)
 -->
<!-- Title: iop/kernel/include/modload.h Pages: 1 -->
<svg width="1741pt" height="172pt"
 viewBox="0.00 0.00 1741.25 171.50" xmlns="http://www.w3.org/2000/svg" xmlns:xlink="http://www.w3.org/1999/xlink">
<g id="graph0" class="graph" transform="scale(1 1) rotate(0) translate(4 167.5)">
<title>iop/kernel/include/modload.h</title>
<!-- Node1 -->
<g id="Node000001" class="node">
<title>Node1</title>
<g id="a_Node000001"><a xlink:title=" ">
<polygon fill="#999999" stroke="#666666" points="918.25,-163.5 826.5,-163.5 826.5,-133 918.25,-133 918.25,-163.5"/>
<text text-anchor="start" x="834.5" y="-150" font-family="Helvetica,sans-Serif" font-size="10.00">iop/kernel/include</text>
<text text-anchor="middle" x="872.38" y="-138.75" font-family="Helvetica,sans-Serif" font-size="10.00">/modload.h</text>
</a>
</g>
</g>
<!-- Node2 -->
<g id="Node000002" class="node">
<title>Node2</title>
<g id="a_Node000002"><a xlink:href="common_2sbus_2src_2irx__imports_8h_source.html" target="_top" xlink:title=" ">
<polygon fill="white" stroke="#666666" points="106.75,-97 0,-97 0,-66.5 106.75,-66.5 106.75,-97"/>
<text text-anchor="start" x="8" y="-83.5" font-family="Helvetica,sans-Serif" font-size="10.00">common/sbus/src/irx</text>
<text text-anchor="middle" x="53.38" y="-72.25" font-family="Helvetica,sans-Serif" font-size="10.00">_imports.h</text>
</a>
</g>
</g>
<!-- Node1&#45;&gt;Node2 -->
<g id="edge1_Node000001_Node000002" class="edge">
<title>Node1&#45;&gt;Node2</title>
<g id="a_edge1_Node000001_Node000002"><a xlink:title=" ">
<path fill="none" stroke="#63b8ff" d="M814.67,-146.55C687.63,-144.34 374.42,-135.12 115.38,-97 112.64,-96.6 109.85,-96.14 107.04,-95.64"/>
<polygon fill="#63b8ff" stroke="#63b8ff" points="814.45,-150.05 824.51,-146.72 814.57,-143.05 814.45,-150.05"/>
</a>
</g>
</g>
<!-- Node3 -->
<g id="Node000003" class="node">
<title>Node3</title>
<g id="a_Node000003"><a xlink:href="iop_2debug_2iop__sbusdbg_2src_2irx__imports_8h_source.html" target="_top" xlink:title=" ">
<polygon fill="white" stroke="#666666" points="240.25,-97 124.5,-97 124.5,-66.5 240.25,-66.5 240.25,-97"/>
<text text-anchor="start" x="132.5" y="-83.5" font-family="Helvetica,sans-Serif" font-size="10.00">iop/debug/iop_sbusdbg</text>
<text text-anchor="middle" x="182.38" y="-72.25" font-family="Helvetica,sans-Serif" font-size="10.00">/src/irx_imports.h</text>
</a>
</g>
</g>
<!-- Node1&#45;&gt;Node3 -->
<g id="edge2_Node000001_Node000003" class="edge">
<title>Node1&#45;&gt;Node3</title>
<g id="a_edge2_Node000001_Node000003"><a xlink:title=" ">
<path fill="none" stroke="#63b8ff" d="M814.86,-145.09C704.65,-140.41 456.26,-127.22 249.38,-97 246.43,-96.57 243.43,-96.09 240.4,-95.57"/>
<polygon fill="#63b8ff" stroke="#63b8ff" points="814.38,-148.58 824.52,-145.5 814.68,-141.58 814.38,-148.58"/>
</a>
</g>
</g>
<!-- Node4 -->
<g id="Node000004" class="node">
<title>Node4</title>
<g id="a_Node000004"><a xlink:href="iop_2debug_2iopdebug_2src_2irx__imports_8h_source.html" target="_top" xlink:title=" ">
<polygon fill="white" stroke="#666666" points="358.38,-97 258.38,-97 258.38,-66.5 358.38,-66.5 358.38,-97"/>
<text text-anchor="start" x="266.38" y="-83.5" font-family="Helvetica,sans-Serif" font-size="10.00">iop/debug/iopdebug</text>
<text text-anchor="middle" x="308.38" y="-72.25" font-family="Helvetica,sans-Serif" font-size="10.00">/src/irx_imports.h</text>
</a>
</g>
</g>
<!-- Node1&#45;&gt;Node4 -->
<g id="edge3_Node000001_Node000004" class="edge">
<title>Node1&#45;&gt;Node4</title>
<g id="a_edge3_Node000001_Node000004"><a xlink:title=" ">
<path fill="none" stroke="#63b8ff" d="M814.89,-144.12C720.81,-138.41 528.31,-124.31 367.38,-97 364.57,-96.52 361.7,-95.99 358.81,-95.42"/>
<polygon fill="#63b8ff" stroke="#63b8ff" points="814.43,-147.6 824.63,-144.7 814.85,-140.61 814.43,-147.6"/>
</a>
</g>
</g>
<!-- Node5 -->
<g id="Node000005" class="node">
<title>Node5</title>
<g id="a_Node000005"><a xlink:href="iop_2debug_2ppctty_2src_2irx__imports_8h_source.html" target="_top" xlink:title=" ">
<polygon fill="white" stroke="#666666" points="480.25,-97 376.5,-97 376.5,-66.5 480.25,-66.5 480.25,-97"/>
<text text-anchor="start" x="384.5" y="-83.5" font-family="Helvetica,sans-Serif" font-size="10.00">iop/debug/ppctty/src</text>
<text text-anchor="middle" x="428.38" y="-72.25" font-family="Helvetica,sans-Serif" font-size="10.00">/irx_imports.h</text>
</a>
</g>
</g>
<!-- Node1&#45;&gt;Node5 -->
<g id="edge4_Node000001_Node000005" class="edge">
<title>Node1&#45;&gt;Node5</title>
<g id="a_edge4_Node000001_Node000005"><a xlink:title=" ">
<path fill="none" stroke="#63b8ff" d="M815.08,-141.52C739.96,-133.61 604.22,-117.9 489.38,-97 486.49,-96.47 483.53,-95.9 480.55,-95.3"/>
<polygon fill="#63b8ff" stroke="#63b8ff" points="814.35,-144.97 824.66,-142.52 815.07,-138 814.35,-144.97"/>
</a>
</g>
</g>
<!-- Node6 -->
<g id="Node000006" class="node">
<title>Node6</title>
<g id="a_Node000006"><a xlink:href="xmodload_8h.html" target="_top" xlink:title=" ">
<polygon fill="white" stroke="#666666" points="590.25,-97 498.5,-97 498.5,-66.5 590.25,-66.5 590.25,-97"/>
<text text-anchor="start" x="506.5" y="-83.5" font-family="Helvetica,sans-Serif" font-size="10.00">iop/kernel/include</text>
<text text-anchor="middle" x="544.38" y="-72.25" font-family="Helvetica,sans-Serif" font-size="10.00">/xmodload.h</text>
</a>
</g>
</g>
<!-- Node1&#45;&gt;Node6 -->
<g id="edge5_Node000001_Node000006" class="edge">
<title>Node1&#45;&gt;Node6</title>
<g id="a_edge5_Node000001_Node000006"><a xlink:title=" ">
<path fill="none" stroke="#63b8ff" d="M814.94,-137.91C759.53,-128.6 673.4,-113.38 599.38,-97 596.49,-96.36 593.52,-95.68 590.53,-94.96"/>
<polygon fill="#63b8ff" stroke="#63b8ff" points="814.35,-141.36 824.79,-139.55 815.5,-134.45 814.35,-141.36"/>
</a>
</g>
</g>
<!-- Node7 -->
<g id="Node000007" class="node">
<title>Node7</title>
<g id="a_Node000007"><a xlink:href="iop_2memorycard_2mcman_2src_2irx__imports_8h_source.html" target="_top" xlink:title=" ">
<polygon fill="white" stroke="#666666" points="728.5,-97 608.25,-97 608.25,-66.5 728.5,-66.5 728.5,-97"/>
<text text-anchor="start" x="616.25" y="-83.5" font-family="Helvetica,sans-Serif" font-size="10.00">iop/memorycard/mcman</text>
<text text-anchor="middle" x="668.38" y="-72.25" font-family="Helvetica,sans-Serif" font-size="10.00">/src/irx_imports.h</text>
</a>
</g>
</g>
<!-- Node1&#45;&gt;Node7 -->
<g id="edge6_Node000001_Node000007" class="edge">
<title>Node1&#45;&gt;Node7</title>
<g id="a_edge6_Node000001_Node000007"><a xlink:title=" ">
<path fill="none" stroke="#63b8ff" d="M815.2,-129.17C783.52,-119.16 744.63,-106.86 714.84,-97.44"/>
<polygon fill="#63b8ff" stroke="#63b8ff" points="814.05,-132.48 824.64,-132.16 816.16,-125.81 814.05,-132.48"/>
</a>
</g>
</g>
<!-- Node8 -->
<g id="Node000008" class="node">
<title>Node8</title>
<g id="a_Node000008"><a xlink:href="mcman-internal_8h_source.html" target="_top" xlink:title=" ">
<polygon fill="white" stroke="#666666" points="866.5,-97 746.25,-97 746.25,-66.5 866.5,-66.5 866.5,-97"/>
<text text-anchor="start" x="754.25" y="-83.5" font-family="Helvetica,sans-Serif" font-size="10.00">iop/memorycard/mcman</text>
<text text-anchor="middle" x="806.38" y="-72.25" font-family="Helvetica,sans-Serif" font-size="10.00">/src/mcman&#45;internal.h</text>
</a>
</g>
</g>
<!-- Node1&#45;&gt;Node8 -->
<g id="edge7_Node000001_Node000008" class="edge">
<title>Node1&#45;&gt;Node8</title>
<g id="a_edge7_Node000001_Node000008"><a xlink:title=" ">
<path fill="none" stroke="#63b8ff" d="M849.29,-124.69C840,-115.61 829.55,-105.4 821.29,-97.33"/>
<polygon fill="#63b8ff" stroke="#63b8ff" points="846.72,-127.07 856.32,-131.56 851.61,-122.06 846.72,-127.07"/>
</a>
</g>
</g>
<!-- Node15 -->
<g id="Node000015" class="node">
<title>Node15</title>
<g id="a_Node000015"><a xlink:href="smap_8c_source.html" target="_top" xlink:title=" ">
<polygon fill="white" stroke="#666666" points="994.25,-97 884.5,-97 884.5,-66.5 994.25,-66.5 994.25,-97"/>
<text text-anchor="start" x="892.5" y="-83.5" font-family="Helvetica,sans-Serif" font-size="10.00">iop/network/smap/src</text>
<text text-anchor="middle" x="939.38" y="-72.25" font-family="Helvetica,sans-Serif" font-size="10.00">/smap.c</text>
</a>
</g>
</g>
<!-- Node1&#45;&gt;Node15 -->
<g id="edge14_Node000001_Node000015" class="edge">
<title>Node1&#45;&gt;Node15</title>
<g id="a_edge14_Node000001_Node000015"><a xlink:title=" ">
<path fill="none" stroke="#63b8ff" d="M895.81,-124.69C905.24,-115.61 915.85,-105.4 924.23,-97.33"/>
<polygon fill="#63b8ff" stroke="#63b8ff" points="893.45,-122.11 888.67,-131.56 898.3,-127.15 893.45,-122.11"/>
</a>
</g>
</g>
<!-- Node16 -->
<g id="Node000016" class="node">
<title>Node16</title>
<g id="a_Node000016"><a xlink:href="xfer_8c_source.html" target="_top" xlink:title=" ">
<polygon fill="white" stroke="#666666" points="1122.25,-97 1012.5,-97 1012.5,-66.5 1122.25,-66.5 1122.25,-97"/>
<text text-anchor="start" x="1020.5" y="-83.5" font-family="Helvetica,sans-Serif" font-size="10.00">iop/network/smap/src</text>
<text text-anchor="middle" x="1067.38" y="-72.25" font-family="Helvetica,sans-Serif" font-size="10.00">/xfer.c</text>
</a>
</g>
</g>
<!-- Node1&#45;&gt;Node16 -->
<g id="edge15_Node000001_Node000016" class="edge">
<title>Node1&#45;&gt;Node16</title>
<g id="a_edge15_Node000001_Node000016"><a xlink:title=" ">
<path fill="none" stroke="#63b8ff" d="M927.42,-129.04C957.64,-119.05 994.61,-106.82 1022.96,-97.44"/>
<polygon fill="#63b8ff" stroke="#63b8ff" points="926.46,-125.68 918.06,-132.14 928.65,-132.32 926.46,-125.68"/>
</a>
</g>
</g>
<!-- Node17 -->
<g id="Node000017" class="node">
<title>Node17</title>
<g id="a_Node000017"><a xlink:href="iop_2security_2secrman_2src_2irx__imports_8h_source.html" target="_top" xlink:title=" ">
<polygon fill="white" stroke="#666666" points="1246.38,-97 1140.38,-97 1140.38,-66.5 1246.38,-66.5 1246.38,-97"/>
<text text-anchor="start" x="1148.38" y="-83.5" font-family="Helvetica,sans-Serif" font-size="10.00">iop/security/secrman</text>
<text text-anchor="middle" x="1193.38" y="-72.25" font-family="Helvetica,sans-Serif" font-size="10.00">/src/irx_imports.h</text>
</a>
</g>
</g>
<!-- Node1&#45;&gt;Node17 -->
<g id="edge16_Node000001_Node000017" class="edge">
<title>Node1&#45;&gt;Node17</title>
<g id="a_edge16_Node000001_Node000017"><a xlink:title=" ">
<path fill="none" stroke="#63b8ff" d="M929.43,-136.76C981.98,-126.96 1062.08,-111.68 1131.38,-97 1134.18,-96.4 1137.06,-95.78 1139.97,-95.15"/>
<polygon fill="#63b8ff" stroke="#63b8ff" points="929,-133.28 919.81,-138.55 930.28,-140.16 929,-133.28"/>
</a>
</g>
</g>
<!-- Node18 -->
<g id="Node000018" class="node">
<title>Node18</title>
<g id="a_Node000018"><a xlink:href="secrman_8c_source.html" target="_top" xlink:title=" ">
<polygon fill="white" stroke="#666666" points="1370.38,-97 1264.38,-97 1264.38,-66.5 1370.38,-66.5 1370.38,-97"/>
<text text-anchor="start" x="1272.38" y="-83.5" font-family="Helvetica,sans-Serif" font-size="10.00">iop/security/secrman</text>
<text text-anchor="middle" x="1317.38" y="-72.25" font-family="Helvetica,sans-Serif" font-size="10.00">/src/secrman.c</text>
</a>
</g>
</g>
<!-- Node1&#45;&gt;Node18 -->
<g id="edge17_Node000001_Node000018" class="edge">
<title>Node1&#45;&gt;Node18</title>
<g id="a_edge17_Node000001_Node000018"><a xlink:title=" ">
<path fill="none" stroke="#63b8ff" d="M929.66,-141.46C1004.77,-133.48 1140.49,-117.69 1255.38,-97 1258.2,-96.49 1261.09,-95.94 1264.01,-95.36"/>
<polygon fill="#63b8ff" stroke="#63b8ff" points="929.66,-137.94 920.08,-142.47 930.4,-144.9 929.66,-137.94"/>
</a>
</g>
</g>
<!-- Node19 -->
<g id="Node000019" class="node">
<title>Node19</title>
<g id="a_Node000019"><a xlink:href="iop_2system_2loadfile_2src_2irx__imports_8h_source.html" target="_top" xlink:title=" ">
<polygon fill="white" stroke="#666666" points="1484.5,-97 1388.25,-97 1388.25,-66.5 1484.5,-66.5 1484.5,-97"/>
<text text-anchor="start" x="1396.25" y="-83.5" font-family="Helvetica,sans-Serif" font-size="10.00">iop/system/loadfile</text>
<text text-anchor="middle" x="1436.38" y="-72.25" font-family="Helvetica,sans-Serif" font-size="10.00">/src/irx_imports.h</text>
</a>
</g>
</g>
<!-- Node1&#45;&gt;Node19 -->
<g id="edge18_Node000001_Node000019" class="edge">
<title>Node1&#45;&gt;Node19</title>
<g id="a_edge18_Node000001_Node000019"><a xlink:title=" ">
<path fill="none" stroke="#63b8ff" d="M929.75,-144.3C1024.1,-138.84 1217.7,-125.07 1379.38,-97 1382.19,-96.51 1385.07,-95.96 1387.97,-95.36"/>
<polygon fill="#63b8ff" stroke="#63b8ff" points="929.77,-140.8 919.98,-144.86 930.16,-147.78 929.77,-140.8"/>
</a>
</g>
</g>
<!-- Node22 -->
<g id="Node000022" class="node">
<title>Node22</title>
<g id="a_Node000022"><a xlink:href="modload_8c_source.html" target="_top" xlink:title=" ">
<polygon fill="white" stroke="#666666" points="1605.88,-97 1502.88,-97 1502.88,-66.5 1605.88,-66.5 1605.88,-97"/>
<text text-anchor="start" x="1510.88" y="-83.5" font-family="Helvetica,sans-Serif" font-size="10.00">iop/system/modload</text>
<text text-anchor="middle" x="1554.38" y="-72.25" font-family="Helvetica,sans-Serif" font-size="10.00">/src/modload.c</text>
</a>
</g>
</g>
<!-- Node1&#45;&gt;Node22 -->
<g id="edge21_Node000001_Node000022" class="edge">
<title>Node1&#45;&gt;Node22</title>
<g id="a_edge21_Node000001_Node000022"><a xlink:title=" ">
<path fill="none" stroke="#63b8ff" d="M930.1,-145.45C1040.22,-141.37 1287.67,-129.17 1493.38,-97 1496.38,-96.53 1499.46,-95.99 1502.56,-95.41"/>
<polygon fill="#63b8ff" stroke="#63b8ff" points="929.99,-141.95 920.13,-145.8 930.25,-148.94 929.99,-141.95"/>
</a>
</g>
</g>
<!-- Node23 -->
<g id="Node000023" class="node">
<title>Node23</title>
<g id="a_Node000023"><a xlink:href="iop_2system_2reboot_2src_2irx__imports_8h_source.html" target="_top" xlink:title=" ">
<polygon fill="white" stroke="#666666" points="1733.25,-97 1623.5,-97 1623.5,-66.5 1733.25,-66.5 1733.25,-97"/>
<text text-anchor="start" x="1631.5" y="-83.5" font-family="Helvetica,sans-Serif" font-size="10.00">iop/system/reboot/src</text>
<text text-anchor="middle" x="1678.38" y="-72.25" font-family="Helvetica,sans-Serif" font-size="10.00">/irx_imports.h</text>
</a>
</g>
</g>
<!-- Node1&#45;&gt;Node23 -->
<g id="edge22_Node000001_Node000023" class="edge">
<title>Node1&#45;&gt;Node23</title>
<g id="a_edge22_Node000001_Node000023"><a xlink:title=" ">
<path fill="none" stroke="#63b8ff" d="M929.92,-146.39C1055.17,-143.85 1361.68,-134.04 1615.38,-97 1617.93,-96.63 1620.53,-96.21 1623.15,-95.75"/>
<polygon fill="#63b8ff" stroke="#63b8ff" points="930.16,-142.88 920.23,-146.58 930.3,-149.88 930.16,-142.88"/>
</a>
</g>
</g>
<!-- Node9 -->
<g id="Node000009" class="node">
<title>Node9</title>
<g id="a_Node000009"><a xlink:href="iop_2memorycard_2mcman_2src_2main_8c_source.html" target="_top" xlink:title=" ">
<polygon fill="white" stroke="#666666" points="517.5,-30.5 397.25,-30.5 397.25,0 517.5,0 517.5,-30.5"/>
<text text-anchor="start" x="405.25" y="-17" font-family="Helvetica,sans-Serif" font-size="10.00">iop/memorycard/mcman</text>
<text text-anchor="middle" x="457.38" y="-5.75" font-family="Helvetica,sans-Serif" font-size="10.00">/src/main.c</text>
</a>
</g>
</g>
<!-- Node8&#45;&gt;Node9 -->
<g id="edge8_Node000008_Node000009" class="edge">
<title>Node8&#45;&gt;Node9</title>
<g id="a_edge8_Node000008_Node000009"><a xlink:title=" ">
<path fill="none" stroke="#63b8ff" d="M734.5,-66C641.96,-48.79 616.3,-47.45 526.38,-30.5 523.61,-29.98 520.79,-29.44 517.93,-28.88"/>
<polygon fill="#63b8ff" stroke="#63b8ff" points="733.86,-69.44 744.33,-67.84 735.14,-62.56 733.86,-69.44"/>
</a>
</g>
</g>
<!-- Node10 -->
<g id="Node000010" class="node">
<title>Node10</title>
<g id="a_Node000010"><a xlink:href="mcdev_8c_source.html" target="_top" xlink:title=" ">
<polygon fill="white" stroke="#666666" points="655.5,-30.5 535.25,-30.5 535.25,0 655.5,0 655.5,-30.5"/>
<text text-anchor="start" x="543.25" y="-17" font-family="Helvetica,sans-Serif" font-size="10.00">iop/memorycard/mcman</text>
<text text-anchor="middle" x="595.38" y="-5.75" font-family="Helvetica,sans-Serif" font-size="10.00">/src/mcdev.c</text>
</a>
</g>
</g>
<!-- Node8&#45;&gt;Node10 -->
<g id="edge9_Node000008_Node000010" class="edge">
<title>Node8&#45;&gt;Node10</title>
<g id="a_edge9_Node000008_Node000010"><a xlink:title=" ">
<path fill="none" stroke="#63b8ff" d="M747.41,-62.72C714.56,-52.68 674.19,-40.34 643.31,-30.9"/>
<polygon fill="#63b8ff" stroke="#63b8ff" points="746.2,-66.01 756.78,-65.59 748.24,-59.32 746.2,-66.01"/>
</a>
</g>
</g>
<!-- Node11 -->
<g id="Node000011" class="node">
<title>Node11</title>
<g id="a_Node000011"><a xlink:href="mciomanx__backing_8c_source.html" target="_top" xlink:title=" ">
<polygon fill="white" stroke="#666666" points="799.5,-30.5 673.25,-30.5 673.25,0 799.5,0 799.5,-30.5"/>
<text text-anchor="start" x="681.25" y="-17" font-family="Helvetica,sans-Serif" font-size="10.00">iop/memorycard/mcman</text>
<text text-anchor="middle" x="736.38" y="-5.75" font-family="Helvetica,sans-Serif" font-size="10.00">/src/mciomanx_backing.c</text>
</a>
</g>
</g>
<!-- Node8&#45;&gt;Node11 -->
<g id="edge10_Node000008_Node000011" class="edge">
<title>Node8&#45;&gt;Node11</title>
<g id="a_edge10_Node000008_Node000011"><a xlink:title=" ">
<path fill="none" stroke="#63b8ff" d="M782.19,-58.46C772.26,-49.32 761.05,-38.98 752.2,-30.83"/>
<polygon fill="#63b8ff" stroke="#63b8ff" points="779.65,-60.89 789.38,-65.09 784.4,-55.74 779.65,-60.89"/>
</a>
</g>
</g>
<!-- Node12 -->
<g id="Node000012" class="node">
<title>Node12</title>
<g id="a_Node000012"><a xlink:href="mcsio2_8c_source.html" target="_top" xlink:title=" ">
<polygon fill="white" stroke="#666666" points="937.5,-30.5 817.25,-30.5 817.25,0 937.5,0 937.5,-30.5"/>
<text text-anchor="start" x="825.25" y="-17" font-family="Helvetica,sans-Serif" font-size="10.00">iop/memorycard/mcman</text>
<text text-anchor="middle" x="877.38" y="-5.75" font-family="Helvetica,sans-Serif" font-size="10.00">/src/mcsio2.c</text>
</a>
</g>
</g>
<!-- Node8&#45;&gt;Node12 -->
<g id="edge11_Node000008_Node000012" class="edge">
<title>Node8&#45;&gt;Node12</title>
<g id="a_edge11_Node000008_Node000012"><a xlink:title=" ">
<path fill="none" stroke="#63b8ff" d="M830.91,-58.46C840.98,-49.32 852.35,-38.98 861.33,-30.83"/>
<polygon fill="#63b8ff" stroke="#63b8ff" points="828.65,-55.78 823.61,-65.1 833.36,-60.96 828.65,-55.78"/>
</a>
</g>
</g>
<!-- Node13 -->
<g id="Node000013" class="node">
<title>Node13</title>
<g id="a_Node000013"><a xlink:href="ps1mc__fio_8c_source.html" target="_top" xlink:title=" ">
<polygon fill="white" stroke="#666666" points="1075.5,-30.5 955.25,-30.5 955.25,0 1075.5,0 1075.5,-30.5"/>
<text text-anchor="start" x="963.25" y="-17" font-family="Helvetica,sans-Serif" font-size="10.00">iop/memorycard/mcman</text>
<text text-anchor="middle" x="1015.38" y="-5.75" font-family="Helvetica,sans-Serif" font-size="10.00">/src/ps1mc_fio.c</text>
</a>
</g>
</g>
<!-- Node8&#45;&gt;Node13 -->
<g id="edge12_Node000008_Node000013" class="edge">
<title>Node8&#45;&gt;Node13</title>
<g id="a_edge12_Node000008_Node000013"><a xlink:title=" ">
<path fill="none" stroke="#63b8ff" d="M864.78,-62.72C897.32,-52.68 937.3,-40.34 967.89,-30.9"/>
<polygon fill="#63b8ff" stroke="#63b8ff" points="864.03,-59.29 855.51,-65.59 866.1,-65.98 864.03,-59.29"/>
</a>
</g>
</g>
<!-- Node14 -->
<g id="Node000014" class="node">
<title>Node14</title>
<g id="a_Node000014"><a xlink:href="ps2mc__fio_8c_source.html" target="_top" xlink:title=" ">
<polygon fill="white" stroke="#666666" points="1213.5,-30.5 1093.25,-30.5 1093.25,0 1213.5,0 1213.5,-30.5"/>
<text text-anchor="start" x="1101.25" y="-17" font-family="Helvetica,sans-Serif" font-size="10.00">iop/memorycard/mcman</text>
<text text-anchor="middle" x="1153.38" y="-5.75" font-family="Helvetica,sans-Serif" font-size="10.00">/src/ps2mc_fio.c</text>
</a>
</g>
</g>
<!-- Node8&#45;&gt;Node14 -->
<g id="edge13_Node000008_Node000014" class="edge">
<title>Node8&#45;&gt;Node14</title>
<g id="a_edge13_Node000008_Node000014"><a xlink:title=" ">
<path fill="none" stroke="#63b8ff" d="M878.15,-66.01C969.9,-48.87 995.29,-47.37 1084.38,-30.5 1087.14,-29.98 1089.96,-29.43 1092.82,-28.87"/>
<polygon fill="#63b8ff" stroke="#63b8ff" points="877.6,-62.56 868.42,-67.85 878.9,-69.43 877.6,-62.56"/>
</a>
</g>
</g>
<!-- Node20 -->
<g id="Node000020" class="node">
<title>Node20</title>
<g id="a_Node000020"><a xlink:href="eeelfloader_8c_source.html" target="_top" xlink:title=" ">
<polygon fill="white" stroke="#666666" points="1427.5,-30.5 1331.25,-30.5 1331.25,0 1427.5,0 1427.5,-30.5"/>
<text text-anchor="start" x="1339.25" y="-17" font-family="Helvetica,sans-Serif" font-size="10.00">iop/system/loadfile</text>
<text text-anchor="middle" x="1379.38" y="-5.75" font-family="Helvetica,sans-Serif" font-size="10.00">/src/eeelfloader.c</text>
</a>
</g>
</g>
<!-- Node19&#45;&gt;Node20 -->
<g id="edge19_Node000019_Node000020" class="edge">
<title>Node19&#45;&gt;Node20</title>
<g id="a_edge19_Node000019_Node000020"><a xlink:title=" ">
<path fill="none" stroke="#63b8ff" d="M1415.94,-57.63C1408.04,-48.69 1399.25,-38.74 1392.26,-30.83"/>
<polygon fill="#63b8ff" stroke="#63b8ff" points="1413.19,-59.8 1422.44,-64.98 1418.44,-55.17 1413.19,-59.8"/>
</a>
</g>
</g>
<!-- Node21 -->
<g id="Node000021" class="node">
<title>Node21</title>
<g id="a_Node000021"><a xlink:href="iop_2system_2loadfile_2src_2loadfile_8c_source.html" target="_top" xlink:title=" ">
<polygon fill="white" stroke="#666666" points="1541.5,-30.5 1445.25,-30.5 1445.25,0 1541.5,0 1541.5,-30.5"/>
<text text-anchor="start" x="1453.25" y="-17" font-family="Helvetica,sans-Serif" font-size="10.00">iop/system/loadfile</text>
<text text-anchor="middle" x="1493.38" y="-5.75" font-family="Helvetica,sans-Serif" font-size="10.00">/src/loadfile.c</text>
</a>
</g>
</g>
<!-- Node19&#45;&gt;Node21 -->
<g id="edge20_Node000019_Node000021" class="edge">
<title>Node19&#45;&gt;Node21</title>
<g id="a_edge20_Node000019_Node000021"><a xlink:title=" ">
<path fill="none" stroke="#63b8ff" d="M1456.81,-57.63C1464.71,-48.69 1473.5,-38.74 1480.49,-30.83"/>
<polygon fill="#63b8ff" stroke="#63b8ff" points="1454.31,-55.17 1450.31,-64.98 1459.56,-59.8 1454.31,-55.17"/>
</a>
</g>
</g>
<!-- Node24 -->
<g id="Node000024" class="node">
<title>Node24</title>
<g id="a_Node000024"><a xlink:href="reboot_8c_source.html" target="_top" xlink:title=" ">
<polygon fill="white" stroke="#666666" points="1733.25,-30.5 1623.5,-30.5 1623.5,0 1733.25,0 1733.25,-30.5"/>
<text text-anchor="start" x="1631.5" y="-17" font-family="Helvetica,sans-Serif" font-size="10.00">iop/system/reboot/src</text>
<text text-anchor="middle" x="1678.38" y="-5.75" font-family="Helvetica,sans-Serif" font-size="10.00">/reboot.c</text>
</a>
</g>
</g>
<!-- Node23&#45;&gt;Node24 -->
<g id="edge23_Node000023_Node000024" class="edge">
<title>Node23&#45;&gt;Node24</title>
<g id="a_edge23_Node000023_Node000024"><a xlink:title=" ">
<path fill="none" stroke="#63b8ff" d="M1678.38,-54.81C1678.38,-46.64 1678.38,-37.91 1678.38,-30.83"/>
<polygon fill="#63b8ff" stroke="#63b8ff" points="1674.88,-54.6 1678.38,-64.6 1681.88,-54.6 1674.88,-54.6"/>
</a>
</g>
</g>
</g>
</svg>
