<?xml version="1.0" encoding="UTF-8" standalone="no"?>
<!DOCTYPE svg PUBLIC "-//W3C//DTD SVG 1.1//EN"
 "http://www.w3.org/Graphics/SVG/1.1/DTD/svg11.dtd">
<!-- Generated by graphviz version 9.0.0 (20230911.1827)
 -->
<!-- Title: iop/kernel/include/vblank.h Pages: 1 -->
<svg width="1016pt" height="105pt"
 viewBox="0.00 0.00 1016.00 105.00" xmlns="http://www.w3.org/2000/svg" xmlns:xlink="http://www.w3.org/1999/xlink">
<g id="graph0" class="graph" transform="scale(1 1) rotate(0) translate(4 101)">
<title>iop/kernel/include/vblank.h</title>
<!-- Node1 -->
<g id="Node000001" class="node">
<title>Node1</title>
<g id="a_Node000001"><a xlink:title=" ">
<polygon fill="#999999" stroke="#666666" points="563.5,-97 471.75,-97 471.75,-66.5 563.5,-66.5 563.5,-97"/>
<text text-anchor="start" x="479.75" y="-83.5" font-family="Helvetica,sans-Serif" font-size="10.00">iop/kernel/include</text>
<text text-anchor="middle" x="517.62" y="-72.25" font-family="Helvetica,sans-Serif" font-size="10.00">/vblank.h</text>
</a>
</g>
</g>
<!-- Node2 -->
<g id="Node000002" class="node">
<title>Node2</title>
<g id="a_Node000002"><a xlink:href="iop_2dev9_2extflash_2src_2irx__imports_8h_source.html" target="_top" xlink:title=" ">
<polygon fill="white" stroke="#666666" points="105.25,-30.5 0,-30.5 0,0 105.25,0 105.25,-30.5"/>
<text text-anchor="start" x="8" y="-17" font-family="Helvetica,sans-Serif" font-size="10.00">iop/dev9/extflash/src</text>
<text text-anchor="middle" x="52.62" y="-5.75" font-family="Helvetica,sans-Serif" font-size="10.00">/irx_imports.h</text>
</a>
</g>
</g>
<!-- Node1&#45;&gt;Node2 -->
<g id="edge1_Node000001_Node000002" class="edge">
<title>Node1&#45;&gt;Node2</title>
<g id="a_edge1_Node000001_Node000002"><a xlink:title=" ">
<path fill="none" stroke="#63b8ff" d="M460.24,-75.54C381.66,-67.97 236.31,-52.4 113.62,-30.5 110.95,-30.02 108.21,-29.5 105.46,-28.95"/>
<polygon fill="#63b8ff" stroke="#63b8ff" points="459.55,-78.99 469.83,-76.46 460.21,-72.02 459.55,-78.99"/>
</a>
</g>
</g>
<!-- Node3 -->
<g id="Node000003" class="node">
<title>Node3</title>
<g id="a_Node000003"><a xlink:href="iop_2system_2padman_2src_2irx__imports_8h_source.html" target="_top" xlink:title=" ">
<polygon fill="white" stroke="#666666" points="240.25,-30.5 123,-30.5 123,0 240.25,0 240.25,-30.5"/>
<text text-anchor="start" x="131" y="-17" font-family="Helvetica,sans-Serif" font-size="10.00">iop/system/padman/src</text>
<text text-anchor="middle" x="181.62" y="-5.75" font-family="Helvetica,sans-Serif" font-size="10.00">/irx_imports.h</text>
</a>
</g>
</g>
<!-- Node1&#45;&gt;Node3 -->
<g id="edge2_Node000001_Node000003" class="edge">
<title>Node1&#45;&gt;Node3</title>
<g id="a_edge2_Node000001_Node000003"><a xlink:title=" ">
<path fill="none" stroke="#63b8ff" d="M460.22,-70.45C405.7,-60.57 321.48,-45.05 248.62,-30.5 245.94,-29.96 243.2,-29.41 240.43,-28.84"/>
<polygon fill="#63b8ff" stroke="#63b8ff" points="459.43,-73.87 469.9,-72.2 460.68,-66.98 459.43,-73.87"/>
</a>
</g>
</g>
<!-- Node4 -->
<g id="Node000004" class="node">
<title>Node4</title>
<g id="a_Node000004"><a xlink:href="pad_init_8c.html" target="_top" xlink:title=" ">
<polygon fill="white" stroke="#666666" points="375.25,-30.5 258,-30.5 258,0 375.25,0 375.25,-30.5"/>
<text text-anchor="start" x="266" y="-17" font-family="Helvetica,sans-Serif" font-size="10.00">iop/system/padman/src</text>
<text text-anchor="middle" x="316.62" y="-5.75" font-family="Helvetica,sans-Serif" font-size="10.00">/padInit.c</text>
</a>
</g>
</g>
<!-- Node1&#45;&gt;Node4 -->
<g id="edge3_Node000001_Node000004" class="edge">
<title>Node1&#45;&gt;Node4</title>
<g id="a_edge3_Node000001_Node000004"><a xlink:title=" ">
<path fill="none" stroke="#63b8ff" d="M461.04,-62.59C429.83,-52.58 391.58,-40.3 362.29,-30.9"/>
<polygon fill="#63b8ff" stroke="#63b8ff" points="459.73,-65.85 470.32,-65.57 461.87,-59.18 459.73,-65.85"/>
</a>
</g>
</g>
<!-- Node5 -->
<g id="Node000005" class="node">
<title>Node5</title>
<g id="a_Node000005"><a xlink:href="pad_misc_funcs_8c.html" target="_top" xlink:title=" ">
<polygon fill="white" stroke="#666666" points="510.25,-30.5 393,-30.5 393,0 510.25,0 510.25,-30.5"/>
<text text-anchor="start" x="401" y="-17" font-family="Helvetica,sans-Serif" font-size="10.00">iop/system/padman/src</text>
<text text-anchor="middle" x="451.62" y="-5.75" font-family="Helvetica,sans-Serif" font-size="10.00">/padMiscFuncs.c</text>
</a>
</g>
</g>
<!-- Node1&#45;&gt;Node5 -->
<g id="edge4_Node000001_Node000005" class="edge">
<title>Node1&#45;&gt;Node5</title>
<g id="a_edge4_Node000001_Node000005"><a xlink:title=" ">
<path fill="none" stroke="#63b8ff" d="M494.54,-58.19C485.25,-49.11 474.8,-38.9 466.54,-30.83"/>
<polygon fill="#63b8ff" stroke="#63b8ff" points="491.97,-60.57 501.57,-65.06 496.86,-55.56 491.97,-60.57"/>
</a>
</g>
</g>
<!-- Node6 -->
<g id="Node000006" class="node">
<title>Node6</title>
<g id="a_Node000006"><a xlink:href="iop_2system_2rmman_2src_2irx__imports_8h_source.html" target="_top" xlink:title=" ">
<polygon fill="white" stroke="#666666" points="641,-30.5 528.25,-30.5 528.25,0 641,0 641,-30.5"/>
<text text-anchor="start" x="536.25" y="-17" font-family="Helvetica,sans-Serif" font-size="10.00">iop/system/rmman/src</text>
<text text-anchor="middle" x="584.62" y="-5.75" font-family="Helvetica,sans-Serif" font-size="10.00">/irx_imports.h</text>
</a>
</g>
</g>
<!-- Node1&#45;&gt;Node6 -->
<g id="edge5_Node000001_Node000006" class="edge">
<title>Node1&#45;&gt;Node6</title>
<g id="a_edge5_Node000001_Node000006"><a xlink:title=" ">
<path fill="none" stroke="#63b8ff" d="M541.06,-58.19C550.49,-49.11 561.1,-38.9 569.48,-30.83"/>
<polygon fill="#63b8ff" stroke="#63b8ff" points="538.7,-55.61 533.92,-65.06 543.55,-60.65 538.7,-55.61"/>
</a>
</g>
</g>
<!-- Node7 -->
<g id="Node000007" class="node">
<title>Node7</title>
<g id="a_Node000007"><a xlink:href="rmman_8c_source.html" target="_top" xlink:title=" ">
<polygon fill="white" stroke="#666666" points="772,-30.5 659.25,-30.5 659.25,0 772,0 772,-30.5"/>
<text text-anchor="start" x="667.25" y="-17" font-family="Helvetica,sans-Serif" font-size="10.00">iop/system/rmman/src</text>
<text text-anchor="middle" x="715.62" y="-5.75" font-family="Helvetica,sans-Serif" font-size="10.00">/rmman.c</text>
</a>
</g>
</g>
<!-- Node1&#45;&gt;Node7 -->
<g id="edge6_Node000001_Node000007" class="edge">
<title>Node1&#45;&gt;Node7</title>
<g id="a_edge6_Node000001_Node000007"><a xlink:title=" ">
<path fill="none" stroke="#63b8ff" d="M573.11,-62.67C603.87,-52.66 641.61,-40.36 670.53,-30.94"/>
<polygon fill="#63b8ff" stroke="#63b8ff" points="572.42,-59.22 563.99,-65.65 574.59,-65.88 572.42,-59.22"/>
</a>
</g>
</g>
<!-- Node8 -->
<g id="Node000008" class="node">
<title>Node8</title>
<g id="a_Node000008"><a xlink:href="iop_2usb_2camera_2src_2irx__imports_8h_source.html" target="_top" xlink:title=" ">
<polygon fill="white" stroke="#666666" points="889.25,-30.5 790,-30.5 790,0 889.25,0 889.25,-30.5"/>
<text text-anchor="start" x="798" y="-17" font-family="Helvetica,sans-Serif" font-size="10.00">iop/usb/camera/src</text>
<text text-anchor="middle" x="839.62" y="-5.75" font-family="Helvetica,sans-Serif" font-size="10.00">/irx_imports.h</text>
</a>
</g>
</g>
<!-- Node1&#45;&gt;Node8 -->
<g id="edge7_Node000001_Node000008" class="edge">
<title>Node1&#45;&gt;Node8</title>
<g id="a_edge7_Node000001_Node000008"><a xlink:title=" ">
<path fill="none" stroke="#63b8ff" d="M575.13,-70.59C628.52,-60.96 710.15,-45.74 780.62,-30.5 783.61,-29.85 786.68,-29.17 789.77,-28.47"/>
<polygon fill="#63b8ff" stroke="#63b8ff" points="574.56,-67.13 565.33,-72.35 575.8,-74.02 574.56,-67.13"/>
</a>
</g>
</g>
<!-- Node9 -->
<g id="Node000009" class="node">
<title>Node9</title>
<g id="a_Node000009"><a xlink:href="iop_2usb_2usbd_2src_2irx__imports_8h_source.html" target="_top" xlink:title=" ">
<polygon fill="white" stroke="#666666" points="1008,-30.5 907.25,-30.5 907.25,0 1008,0 1008,-30.5"/>
<text text-anchor="start" x="915.25" y="-17" font-family="Helvetica,sans-Serif" font-size="10.00">iop/usb/usbd/src/irx</text>
<text text-anchor="middle" x="957.62" y="-5.75" font-family="Helvetica,sans-Serif" font-size="10.00">_imports.h</text>
</a>
</g>
</g>
<!-- Node1&#45;&gt;Node9 -->
<g id="edge8_Node000001_Node000009" class="edge">
<title>Node1&#45;&gt;Node9</title>
<g id="a_edge8_Node000001_Node000009"><a xlink:title=" ">
<path fill="none" stroke="#63b8ff" d="M574.95,-75.1C649.77,-67.29 784.61,-51.73 898.62,-30.5 901.32,-30 904.07,-29.45 906.85,-28.87"/>
<polygon fill="#63b8ff" stroke="#63b8ff" points="575,-71.58 565.42,-76.09 575.72,-78.54 575,-71.58"/>
</a>
</g>
</g>
</g>
</svg>
